<?xml version="1.0" encoding="UTF-8" standalone="no"?>
<!DOCTYPE svg PUBLIC "-//W3C//DTD SVG 1.1//EN"
 "http://www.w3.org/Graphics/SVG/1.1/DTD/svg11.dtd">
<!-- Generated by graphviz version 2.38.0 (20140413.2041)
 -->
<!-- Title: controllers_diagram Pages: 1 -->
<svg width="774pt" height="868pt"
 viewBox="0.00 0.00 773.50 867.50" xmlns="http://www.w3.org/2000/svg" xmlns:xlink="http://www.w3.org/1999/xlink">
<g id="graph0" class="graph" transform="scale(1 1) rotate(0) translate(255.5 485.5)">
<title>controllers_diagram</title>
<polygon fill="none" stroke="none" points="-255.5,382 -255.5,-485.5 518,-485.5 518,382 -255.5,382"/>
<!-- _diagram_info -->
<g id="node1" class="node"><title>_diagram_info</title>
<text text-anchor="start" x="-82" y="152.4" font-family="Times,serif" font-size="13.00">Controllers diagram</text>
<text text-anchor="start" x="-82" y="166.4" font-family="Times,serif" font-size="13.00">Date: May 25 2016 &#45; 00:42</text>
<text text-anchor="start" x="-82" y="180.4" font-family="Times,serif" font-size="13.00">Migration version: 20160524153942</text>
<text text-anchor="start" x="-82" y="194.4" font-family="Times,serif" font-size="13.00">Generated by RailRoady 1.4.2</text>
<text text-anchor="start" x="-82" y="208.4" font-family="Times,serif" font-size="13.00">http://railroady.prestonlee.com</text>
</g>
<!-- FurnituresController -->
<g id="node2" class="node"><title>FurnituresController</title>
<path fill="none" stroke="black" d="M-60,-144.5C-60,-144.5 44,-144.5 44,-144.5 50,-144.5 56,-150.5 56,-156.5 56,-156.5 56,-345.5 56,-345.5 56,-351.5 50,-357.5 44,-357.5 44,-357.5 -60,-357.5 -60,-357.5 -66,-357.5 -72,-351.5 -72,-345.5 -72,-345.5 -72,-156.5 -72,-156.5 -72,-150.5 -66,-144.5 -60,-144.5"/>
<text text-anchor="middle" x="-8" y="-342.3" font-family="Times,serif" font-size="14.00">FurnituresController</text>
<polyline fill="none" stroke="black" points="-72,-334.5 56,-334.5 "/>
<text text-anchor="start" x="-64" y="-319.3" font-family="Times,serif" font-size="14.00">create</text>
<text text-anchor="start" x="-64" y="-304.3" font-family="Times,serif" font-size="14.00">destroy</text>
<text text-anchor="start" x="-64" y="-289.3" font-family="Times,serif" font-size="14.00">edit</text>
<text text-anchor="start" x="-64" y="-274.3" font-family="Times,serif" font-size="14.00">index</text>
<text text-anchor="start" x="-64" y="-259.3" font-family="Times,serif" font-size="14.00">new</text>
<text text-anchor="start" x="-64" y="-244.3" font-family="Times,serif" font-size="14.00">show</text>
<text text-anchor="start" x="-64" y="-229.3" font-family="Times,serif" font-size="14.00">update</text>
<polyline fill="none" stroke="black" points="-72,-221.5 56,-221.5 "/>
<polyline fill="none" stroke="black" points="-72,-197.5 56,-197.5 "/>
<text text-anchor="start" x="-64" y="-182.3" font-family="Times,serif" font-size="14.00">_layout</text>
<text text-anchor="start" x="-64" y="-167.3" font-family="Times,serif" font-size="14.00">furniture_params</text>
<text text-anchor="start" x="-64" y="-152.3" font-family="Times,serif" font-size="14.00">set_furniture</text>
</g>
<!-- VisitorsController -->
<g id="node3" class="node"><title>VisitorsController</title>
<path fill="none" stroke="black" d="M192.5,-180.5C192.5,-180.5 283.5,-180.5 283.5,-180.5 289.5,-180.5 295.5,-186.5 295.5,-192.5 295.5,-192.5 295.5,-381.5 295.5,-381.5 295.5,-387.5 289.5,-393.5 283.5,-393.5 283.5,-393.5 192.5,-393.5 192.5,-393.5 186.5,-393.5 180.5,-387.5 180.5,-381.5 180.5,-381.5 180.5,-192.5 180.5,-192.5 180.5,-186.5 186.5,-180.5 192.5,-180.5"/>
<text text-anchor="middle" x="238" y="-378.3" font-family="Times,serif" font-size="14.00">VisitorsController</text>
<polyline fill="none" stroke="black" points="180.5,-370.5 295.5,-370.5 "/>
<text text-anchor="start" x="188.5" y="-355.3" font-family="Times,serif" font-size="14.00">create</text>
<text text-anchor="start" x="188.5" y="-340.3" font-family="Times,serif" font-size="14.00">destroy</text>
<text text-anchor="start" x="188.5" y="-325.3" font-family="Times,serif" font-size="14.00">edit</text>
<text text-anchor="start" x="188.5" y="-310.3" font-family="Times,serif" font-size="14.00">index</text>
<text text-anchor="start" x="188.5" y="-295.3" font-family="Times,serif" font-size="14.00">new</text>
<text text-anchor="start" x="188.5" y="-280.3" font-family="Times,serif" font-size="14.00">show</text>
<text text-anchor="start" x="188.5" y="-265.3" font-family="Times,serif" font-size="14.00">update</text>
<polyline fill="none" stroke="black" points="180.5,-257.5 295.5,-257.5 "/>
<polyline fill="none" stroke="black" points="180.5,-233.5 295.5,-233.5 "/>
<text text-anchor="start" x="188.5" y="-218.3" font-family="Times,serif" font-size="14.00">_layout</text>
<text text-anchor="start" x="188.5" y="-203.3" font-family="Times,serif" font-size="14.00">set_visitor</text>
<text text-anchor="start" x="188.5" y="-188.3" font-family="Times,serif" font-size="14.00">visitor_params</text>
</g>
<!-- EmployeesController -->
<g id="node4" class="node"><title>EmployeesController</title>
<path fill="none" stroke="black" d="M-59.5,107.5C-59.5,107.5 49.5,107.5 49.5,107.5 55.5,107.5 61.5,101.5 61.5,95.5 61.5,95.5 61.5,-93.5 61.5,-93.5 61.5,-99.5 55.5,-105.5 49.5,-105.5 49.5,-105.5 -59.5,-105.5 -59.5,-105.5 -65.5,-105.5 -71.5,-99.5 -71.5,-93.5 -71.5,-93.5 -71.5,95.5 -71.5,95.5 -71.5,101.5 -65.5,107.5 -59.5,107.5"/>
<text text-anchor="middle" x="-5" y="-90.3" font-family="Times,serif" font-size="14.00">EmployeesController</text>
<polyline fill="none" stroke="black" points="-71.5,-82.5 61.5,-82.5 "/>
<text text-anchor="start" x="-63.5" y="-67.3" font-family="Times,serif" font-size="14.00">create</text>
<text text-anchor="start" x="-63.5" y="-52.3" font-family="Times,serif" font-size="14.00">destroy</text>
<text text-anchor="start" x="-63.5" y="-37.3" font-family="Times,serif" font-size="14.00">edit</text>
<text text-anchor="start" x="-63.5" y="-22.3" font-family="Times,serif" font-size="14.00">index</text>
<text text-anchor="start" x="-63.5" y="-7.3" font-family="Times,serif" font-size="14.00">new</text>
<text text-anchor="start" x="-63.5" y="7.7" font-family="Times,serif" font-size="14.00">show</text>
<text text-anchor="start" x="-63.5" y="22.7" font-family="Times,serif" font-size="14.00">update</text>
<polyline fill="none" stroke="black" points="-71.5,30.5 61.5,30.5 "/>
<polyline fill="none" stroke="black" points="-71.5,54.5 61.5,54.5 "/>
<text text-anchor="start" x="-63.5" y="69.7" font-family="Times,serif" font-size="14.00">_layout</text>
<text text-anchor="start" x="-63.5" y="84.7" font-family="Times,serif" font-size="14.00">employee_params</text>
<text text-anchor="start" x="-63.5" y="99.7" font-family="Times,serif" font-size="14.00">set_employee</text>
</g>
<!-- WelcomeController -->
<g id="node5" class="node"><title>WelcomeController</title>
<path fill="none" stroke="black" d="M390.5,197C390.5,197 491.5,197 491.5,197 497.5,197 503.5,191 503.5,185 503.5,185 503.5,71 503.5,71 503.5,65 497.5,59 491.5,59 491.5,59 390.5,59 390.5,59 384.5,59 378.5,65 378.5,71 378.5,71 378.5,185 378.5,185 378.5,191 384.5,197 390.5,197"/>
<text text-anchor="middle" x="441" y="74.2" font-family="Times,serif" font-size="14.00">WelcomeController</text>
<polyline fill="none" stroke="black" points="378.5,82 503.5,82 "/>
<text text-anchor="start" x="386.5" y="97.2" font-family="Times,serif" font-size="14.00">create</text>
<text text-anchor="start" x="386.5" y="112.2" font-family="Times,serif" font-size="14.00">destroy</text>
<text text-anchor="start" x="386.5" y="127.2" font-family="Times,serif" font-size="14.00">index</text>
<text text-anchor="start" x="386.5" y="142.2" font-family="Times,serif" font-size="14.00">new</text>
<polyline fill="none" stroke="black" points="378.5,150 503.5,150 "/>
<polyline fill="none" stroke="black" points="378.5,174 503.5,174 "/>
<text text-anchor="start" x="386.5" y="189.2" font-family="Times,serif" font-size="14.00">_layout</text>
</g>
<!-- BuildingsController -->
<g id="node6" class="node"><title>BuildingsController</title>
<path fill="none" stroke="black" d="M-221.5,-0.5C-221.5,-0.5 -120.5,-0.5 -120.5,-0.5 -114.5,-0.5 -108.5,-6.5 -108.5,-12.5 -108.5,-12.5 -108.5,-201.5 -108.5,-201.5 -108.5,-207.5 -114.5,-213.5 -120.5,-213.5 -120.5,-213.5 -221.5,-213.5 -221.5,-213.5 -227.5,-213.5 -233.5,-207.5 -233.5,-201.5 -233.5,-201.5 -233.5,-12.5 -233.5,-12.5 -233.5,-6.5 -227.5,-0.5 -221.5,-0.5"/>
<text text-anchor="middle" x="-171" y="-198.3" font-family="Times,serif" font-size="14.00">BuildingsController</text>
<polyline fill="none" stroke="black" points="-233.5,-190.5 -108.5,-190.5 "/>
<text text-anchor="start" x="-225.5" y="-175.3" font-family="Times,serif" font-size="14.00">create</text>
<text text-anchor="start" x="-225.5" y="-160.3" font-family="Times,serif" font-size="14.00">destroy</text>
<text text-anchor="start" x="-225.5" y="-145.3" font-family="Times,serif" font-size="14.00">edit</text>
<text text-anchor="start" x="-225.5" y="-130.3" font-family="Times,serif" font-size="14.00">index</text>
<text text-anchor="start" x="-225.5" y="-115.3" font-family="Times,serif" font-size="14.00">new</text>
<text text-anchor="start" x="-225.5" y="-100.3" font-family="Times,serif" font-size="14.00">show</text>
<text text-anchor="start" x="-225.5" y="-85.3" font-family="Times,serif" font-size="14.00">update</text>
<polyline fill="none" stroke="black" points="-233.5,-77.5 -108.5,-77.5 "/>
<polyline fill="none" stroke="black" points="-233.5,-53.5 -108.5,-53.5 "/>
<text text-anchor="start" x="-225.5" y="-38.3" font-family="Times,serif" font-size="14.00">_layout</text>
<text text-anchor="start" x="-225.5" y="-23.3" font-family="Times,serif" font-size="14.00">building_params</text>
<text text-anchor="start" x="-225.5" y="-8.3" font-family="Times,serif" font-size="14.00">set_building</text>
</g>
<!-- PasswordResetsController -->
<g id="node7" class="node"><title>PasswordResetsController</title>
<path fill="none" stroke="black" d="M336.5,-271C336.5,-271 471.5,-271 471.5,-271 477.5,-271 483.5,-277 483.5,-283 483.5,-283 483.5,-397 483.5,-397 483.5,-403 477.5,-409 471.5,-409 471.5,-409 336.5,-409 336.5,-409 330.5,-409 324.5,-403 324.5,-397 324.5,-397 324.5,-283 324.5,-283 324.5,-277 330.5,-271 336.5,-271"/>
<text text-anchor="middle" x="404" y="-393.8" font-family="Times,serif" font-size="14.00">PasswordResetsController</text>
<polyline fill="none" stroke="black" points="324.5,-386 483.5,-386 "/>
<text text-anchor="start" x="332.5" y="-370.8" font-family="Times,serif" font-size="14.00">create</text>
<text text-anchor="start" x="332.5" y="-355.8" font-family="Times,serif" font-size="14.00">edit</text>
<text text-anchor="start" x="332.5" y="-340.8" font-family="Times,serif" font-size="14.00">new</text>
<text text-anchor="start" x="332.5" y="-325.8" font-family="Times,serif" font-size="14.00">update</text>
<polyline fill="none" stroke="black" points="324.5,-318 483.5,-318 "/>
<polyline fill="none" stroke="black" points="324.5,-294 483.5,-294 "/>
<text text-anchor="start" x="332.5" y="-278.8" font-family="Times,serif" font-size="14.00">_layout</text>
</g>
<!-- LinensController -->
<g id="node8" class="node"><title>LinensController</title>
<path fill="none" stroke="black" d="M336.5,-18.5C336.5,-18.5 421.5,-18.5 421.5,-18.5 427.5,-18.5 433.5,-24.5 433.5,-30.5 433.5,-30.5 433.5,-219.5 433.5,-219.5 433.5,-225.5 427.5,-231.5 421.5,-231.5 421.5,-231.5 336.5,-231.5 336.5,-231.5 330.5,-231.5 324.5,-225.5 324.5,-219.5 324.5,-219.5 324.5,-30.5 324.5,-30.5 324.5,-24.5 330.5,-18.5 336.5,-18.5"/>
<text text-anchor="middle" x="379" y="-216.3" font-family="Times,serif" font-size="14.00">LinensController</text>
<polyline fill="none" stroke="black" points="324.5,-208.5 433.5,-208.5 "/>
<text text-anchor="start" x="332.5" y="-193.3" font-family="Times,serif" font-size="14.00">create</text>
<text text-anchor="start" x="332.5" y="-178.3" font-family="Times,serif" font-size="14.00">destroy</text>
<text text-anchor="start" x="332.5" y="-163.3" font-family="Times,serif" font-size="14.00">edit</text>
<text text-anchor="start" x="332.5" y="-148.3" font-family="Times,serif" font-size="14.00">index</text>
<text text-anchor="start" x="332.5" y="-133.3" font-family="Times,serif" font-size="14.00">new</text>
<text text-anchor="start" x="332.5" y="-118.3" font-family="Times,serif" font-size="14.00">show</text>
<text text-anchor="start" x="332.5" y="-103.3" font-family="Times,serif" font-size="14.00">update</text>
<polyline fill="none" stroke="black" points="324.5,-95.5 433.5,-95.5 "/>
<polyline fill="none" stroke="black" points="324.5,-71.5 433.5,-71.5 "/>
<text text-anchor="start" x="332.5" y="-56.3" font-family="Times,serif" font-size="14.00">_layout</text>
<text text-anchor="start" x="332.5" y="-41.3" font-family="Times,serif" font-size="14.00">linen_params</text>
<text text-anchor="start" x="332.5" y="-26.3" font-family="Times,serif" font-size="14.00">set_linen</text>
</g>
<!-- ApplicationController -->
<g id="node9" class="node"><title>ApplicationController</title>
<path fill="none" stroke="black" d="M390,377.5C390,377.5 502,377.5 502,377.5 508,377.5 514,371.5 514,365.5 514,365.5 514,250.5 514,250.5 514,244.5 508,238.5 502,238.5 502,238.5 390,238.5 390,238.5 384,238.5 378,244.5 378,250.5 378,250.5 378,365.5 378,365.5 378,371.5 384,377.5 390,377.5"/>
<text text-anchor="middle" x="446" y="253.7" font-family="Times,serif" font-size="14.00">ApplicationController</text>
<polyline fill="none" stroke="black" points="378,261.5 514,261.5 "/>
<polyline fill="none" stroke="black" points="378,285.5 514,285.5 "/>
<polyline fill="none" stroke="black" points="378,309.5 514,309.5 "/>
<text text-anchor="start" x="386" y="324.7" font-family="Times,serif" font-size="14.00">_layout</text>
<text text-anchor="start" x="386" y="339.7" font-family="Times,serif" font-size="14.00">check_app_auth</text>
<text text-anchor="start" x="386" y="354.7" font-family="Times,serif" font-size="14.00">load_current_user</text>
<text text-anchor="start" x="386" y="369.7" font-family="Times,serif" font-size="14.00">not_authenticated</text>
</g>
<!-- TenantsController -->
<g id="node10" class="node"><title>TenantsController</title>
<path fill="none" stroke="black" d="M246.5,233.5C246.5,233.5 337.5,233.5 337.5,233.5 343.5,233.5 349.5,227.5 349.5,221.5 349.5,221.5 349.5,32.5 349.5,32.5 349.5,26.5 343.5,20.5 337.5,20.5 337.5,20.5 246.5,20.5 246.5,20.5 240.5,20.5 234.5,26.5 234.5,32.5 234.5,32.5 234.5,221.5 234.5,221.5 234.5,227.5 240.5,233.5 246.5,233.5"/>
<text text-anchor="middle" x="292" y="35.7" font-family="Times,serif" font-size="14.00">TenantsController</text>
<polyline fill="none" stroke="black" points="234.5,43.5 349.5,43.5 "/>
<text text-anchor="start" x="242.5" y="58.7" font-family="Times,serif" font-size="14.00">create</text>
<text text-anchor="start" x="242.5" y="73.7" font-family="Times,serif" font-size="14.00">destroy</text>
<text text-anchor="start" x="242.5" y="88.7" font-family="Times,serif" font-size="14.00">edit</text>
<text text-anchor="start" x="242.5" y="103.7" font-family="Times,serif" font-size="14.00">index</text>
<text text-anchor="start" x="242.5" y="118.7" font-family="Times,serif" font-size="14.00">new</text>
<text text-anchor="start" x="242.5" y="133.7" font-family="Times,serif" font-size="14.00">show</text>
<text text-anchor="start" x="242.5" y="148.7" font-family="Times,serif" font-size="14.00">update</text>
<polyline fill="none" stroke="black" points="234.5,156.5 349.5,156.5 "/>
<polyline fill="none" stroke="black" points="234.5,180.5 349.5,180.5 "/>
<text text-anchor="start" x="242.5" y="195.7" font-family="Times,serif" font-size="14.00">_layout</text>
<text text-anchor="start" x="242.5" y="210.7" font-family="Times,serif" font-size="14.00">set_tenant</text>
<text text-anchor="start" x="242.5" y="225.7" font-family="Times,serif" font-size="14.00">tenant_params</text>
</g>
<!-- RequestsController -->
<g id="node11" class="node"><title>RequestsController</title>
<path fill="none" stroke="black" d="M-239.5,251.5C-239.5,251.5 -142.5,251.5 -142.5,251.5 -136.5,251.5 -130.5,245.5 -130.5,239.5 -130.5,239.5 -130.5,50.5 -130.5,50.5 -130.5,44.5 -136.5,38.5 -142.5,38.5 -142.5,38.5 -239.5,38.5 -239.5,38.5 -245.5,38.5 -251.5,44.5 -251.5,50.5 -251.5,50.5 -251.5,239.5 -251.5,239.5 -251.5,245.5 -245.5,251.5 -239.5,251.5"/>
<text text-anchor="middle" x="-191" y="53.7" font-family="Times,serif" font-size="14.00">RequestsController</text>
<polyline fill="none" stroke="black" points="-251.5,61.5 -130.5,61.5 "/>
<text text-anchor="start" x="-243.5" y="76.7" font-family="Times,serif" font-size="14.00">create</text>
<text text-anchor="start" x="-243.5" y="91.7" font-family="Times,serif" font-size="14.00">destroy</text>
<text text-anchor="start" x="-243.5" y="106.7" font-family="Times,serif" font-size="14.00">edit</text>
<text text-anchor="start" x="-243.5" y="121.7" font-family="Times,serif" font-size="14.00">index</text>
<text text-anchor="start" x="-243.5" y="136.7" font-family="Times,serif" font-size="14.00">new</text>
<text text-anchor="start" x="-243.5" y="151.7" font-family="Times,serif" font-size="14.00">show</text>
<text text-anchor="start" x="-243.5" y="166.7" font-family="Times,serif" font-size="14.00">update</text>
<polyline fill="none" stroke="black" points="-251.5,174.5 -130.5,174.5 "/>
<polyline fill="none" stroke="black" points="-251.5,198.5 -130.5,198.5 "/>
<text text-anchor="start" x="-243.5" y="213.7" font-family="Times,serif" font-size="14.00">_layout</text>
<text text-anchor="start" x="-243.5" y="228.7" font-family="Times,serif" font-size="14.00">request_params</text>
<text text-anchor="start" x="-243.5" y="243.7" font-family="Times,serif" font-size="14.00">set_request</text>
</g>
<!-- RoomsController -->
<g id="node12" class="node"><title>RoomsController</title>
<path fill="none" stroke="black" d="M102.5,89C102.5,89 189.5,89 189.5,89 195.5,89 201.5,83 201.5,77 201.5,77 201.5,-127 201.5,-127 201.5,-133 195.5,-139 189.5,-139 189.5,-139 102.5,-139 102.5,-139 96.5,-139 90.5,-133 90.5,-127 90.5,-127 90.5,77 90.5,77 90.5,83 96.5,89 102.5,89"/>
<text text-anchor="middle" x="146" y="-123.8" font-family="Times,serif" font-size="14.00">RoomsController</text>
<polyline fill="none" stroke="black" points="90.5,-116 201.5,-116 "/>
<text text-anchor="start" x="98.5" y="-100.8" font-family="Times,serif" font-size="14.00">add</text>
<text text-anchor="start" x="98.5" y="-85.8" font-family="Times,serif" font-size="14.00">create</text>
<text text-anchor="start" x="98.5" y="-70.8" font-family="Times,serif" font-size="14.00">destroy</text>
<text text-anchor="start" x="98.5" y="-55.8" font-family="Times,serif" font-size="14.00">edit</text>
<text text-anchor="start" x="98.5" y="-40.8" font-family="Times,serif" font-size="14.00">index</text>
<text text-anchor="start" x="98.5" y="-25.8" font-family="Times,serif" font-size="14.00">new</text>
<text text-anchor="start" x="98.5" y="-10.8" font-family="Times,serif" font-size="14.00">show</text>
<text text-anchor="start" x="98.5" y="4.2" font-family="Times,serif" font-size="14.00">update</text>
<polyline fill="none" stroke="black" points="90.5,12 201.5,12 "/>
<polyline fill="none" stroke="black" points="90.5,36 201.5,36 "/>
<text text-anchor="start" x="98.5" y="51.2" font-family="Times,serif" font-size="14.00">_layout</text>
<text text-anchor="start" x="98.5" y="66.2" font-family="Times,serif" font-size="14.00">room_params</text>
<text text-anchor="start" x="98.5" y="81.2" font-family="Times,serif" font-size="14.00">set_room</text>
</g>
<!-- UsersController -->
<g id="node13" class="node"><title>UsersController</title>
<path fill="none" stroke="black" d="M-203.5,-253C-203.5,-253 -124.5,-253 -124.5,-253 -118.5,-253 -112.5,-259 -112.5,-265 -112.5,-265 -112.5,-469 -112.5,-469 -112.5,-475 -118.5,-481 -124.5,-481 -124.5,-481 -203.5,-481 -203.5,-481 -209.5,-481 -215.5,-475 -215.5,-469 -215.5,-469 -215.5,-265 -215.5,-265 -215.5,-259 -209.5,-253 -203.5,-253"/>
<text text-anchor="middle" x="-164" y="-465.8" font-family="Times,serif" font-size="14.00">UsersController</text>
<polyline fill="none" stroke="black" points="-215.5,-458 -112.5,-458 "/>
<text text-anchor="start" x="-207.5" y="-442.8" font-family="Times,serif" font-size="14.00">activate</text>
<text text-anchor="start" x="-207.5" y="-427.8" font-family="Times,serif" font-size="14.00">create</text>
<text text-anchor="start" x="-207.5" y="-412.8" font-family="Times,serif" font-size="14.00">destroy</text>
<text text-anchor="start" x="-207.5" y="-397.8" font-family="Times,serif" font-size="14.00">edit</text>
<text text-anchor="start" x="-207.5" y="-382.8" font-family="Times,serif" font-size="14.00">index</text>
<text text-anchor="start" x="-207.5" y="-367.8" font-family="Times,serif" font-size="14.00">new</text>
<text text-anchor="start" x="-207.5" y="-352.8" font-family="Times,serif" font-size="14.00">show</text>
<text text-anchor="start" x="-207.5" y="-337.8" font-family="Times,serif" font-size="14.00">update</text>
<polyline fill="none" stroke="black" points="-215.5,-330 -112.5,-330 "/>
<polyline fill="none" stroke="black" points="-215.5,-306 -112.5,-306 "/>
<text text-anchor="start" x="-207.5" y="-290.8" font-family="Times,serif" font-size="14.00">_layout</text>
<text text-anchor="start" x="-207.5" y="-275.8" font-family="Times,serif" font-size="14.00">set_user</text>
<text text-anchor="start" x="-207.5" y="-260.8" font-family="Times,serif" font-size="14.00">user_params</text>
</g>
</g>
</svg>
