<?xml version="1.0" encoding="UTF-8" standalone="no"?>
<!DOCTYPE svg PUBLIC "-//W3C//DTD SVG 1.1//EN"
 "http://www.w3.org/Graphics/SVG/1.1/DTD/svg11.dtd">
<!-- Generated by graphviz version 2.38.0 (20140413.2041)
 -->
<!-- Title: controllers_diagram Pages: 1 -->
<svg width="869pt" height="922pt"
 viewBox="0.00 0.00 869.00 921.50" xmlns="http://www.w3.org/2000/svg" xmlns:xlink="http://www.w3.org/1999/xlink">
<g id="graph0" class="graph" transform="scale(1 1) rotate(0) translate(381.5 521.5)">
<title>controllers_diagram</title>
<polygon fill="none" stroke="none" points="-381.5,400 -381.5,-521.5 487.5,-521.5 487.5,400 -381.5,400"/>
<!-- _diagram_info -->
<g id="node1" class="node"><title>_diagram_info</title>
<text text-anchor="start" x="-82" y="152.4" font-family="Times,serif" font-size="13.00">Controllers diagram</text>
<text text-anchor="start" x="-82" y="166.4" font-family="Times,serif" font-size="13.00">Date: May 27 2016 &#45; 19:50</text>
<text text-anchor="start" x="-82" y="180.4" font-family="Times,serif" font-size="13.00">Migration version: 20160526120246</text>
<text text-anchor="start" x="-82" y="194.4" font-family="Times,serif" font-size="13.00">Generated by RailRoady 1.4.2</text>
<text text-anchor="start" x="-82" y="208.4" font-family="Times,serif" font-size="13.00">http://railroady.prestonlee.com</text>
</g>
<!-- FurnituresController -->
<g id="node2" class="node"><title>FurnituresController</title>
<path fill="none" stroke="black" d="M-60,-144.5C-60,-144.5 44,-144.5 44,-144.5 50,-144.5 56,-150.5 56,-156.5 56,-156.5 56,-345.5 56,-345.5 56,-351.5 50,-357.5 44,-357.5 44,-357.5 -60,-357.5 -60,-357.5 -66,-357.5 -72,-351.5 -72,-345.5 -72,-345.5 -72,-156.5 -72,-156.5 -72,-150.5 -66,-144.5 -60,-144.5"/>
<text text-anchor="middle" x="-8" y="-342.3" font-family="Times,serif" font-size="14.00">FurnituresController</text>
<polyline fill="none" stroke="black" points="-72,-334.5 56,-334.5 "/>
<text text-anchor="start" x="-64" y="-319.3" font-family="Times,serif" font-size="14.00">create</text>
<text text-anchor="start" x="-64" y="-304.3" font-family="Times,serif" font-size="14.00">destroy</text>
<text text-anchor="start" x="-64" y="-289.3" font-family="Times,serif" font-size="14.00">edit</text>
<text text-anchor="start" x="-64" y="-274.3" font-family="Times,serif" font-size="14.00">index</text>
<text text-anchor="start" x="-64" y="-259.3" font-family="Times,serif" font-size="14.00">new</text>
<text text-anchor="start" x="-64" y="-244.3" font-family="Times,serif" font-size="14.00">show</text>
<text text-anchor="start" x="-64" y="-229.3" font-family="Times,serif" font-size="14.00">update</text>
<polyline fill="none" stroke="black" points="-72,-221.5 56,-221.5 "/>
<polyline fill="none" stroke="black" points="-72,-197.5 56,-197.5 "/>
<text text-anchor="start" x="-64" y="-182.3" font-family="Times,serif" font-size="14.00">_layout</text>
<text text-anchor="start" x="-64" y="-167.3" font-family="Times,serif" font-size="14.00">furniture_params</text>
<text text-anchor="start" x="-64" y="-152.3" font-family="Times,serif" font-size="14.00">set_furniture</text>
</g>
<!-- TenantController -->
<g id="node3" class="node"><title>TenantController</title>
<path fill="none" stroke="black" d="M102,341.5C102,341.5 188,341.5 188,341.5 194,341.5 200,335.5 200,329.5 200,329.5 200,260.5 200,260.5 200,254.5 194,248.5 188,248.5 188,248.5 102,248.5 102,248.5 96,248.5 90,254.5 90,260.5 90,260.5 90,329.5 90,329.5 90,335.5 96,341.5 102,341.5"/>
<text text-anchor="middle" x="145" y="263.7" font-family="Times,serif" font-size="14.00">TenantController</text>
<polyline fill="none" stroke="black" points="90,271.5 200,271.5 "/>
<text text-anchor="start" x="98" y="286.7" font-family="Times,serif" font-size="14.00">index</text>
<polyline fill="none" stroke="black" points="90,294.5 200,294.5 "/>
<polyline fill="none" stroke="black" points="90,318.5 200,318.5 "/>
<text text-anchor="start" x="98" y="333.7" font-family="Times,serif" font-size="14.00">_layout</text>
</g>
<!-- VisitorsController -->
<g id="node4" class="node"><title>VisitorsController</title>
<path fill="none" stroke="black" d="M192.5,-180.5C192.5,-180.5 283.5,-180.5 283.5,-180.5 289.5,-180.5 295.5,-186.5 295.5,-192.5 295.5,-192.5 295.5,-381.5 295.5,-381.5 295.5,-387.5 289.5,-393.5 283.5,-393.5 283.5,-393.5 192.5,-393.5 192.5,-393.5 186.5,-393.5 180.5,-387.5 180.5,-381.5 180.5,-381.5 180.5,-192.5 180.5,-192.5 180.5,-186.5 186.5,-180.5 192.5,-180.5"/>
<text text-anchor="middle" x="238" y="-378.3" font-family="Times,serif" font-size="14.00">VisitorsController</text>
<polyline fill="none" stroke="black" points="180.5,-370.5 295.5,-370.5 "/>
<text text-anchor="start" x="188.5" y="-355.3" font-family="Times,serif" font-size="14.00">create</text>
<text text-anchor="start" x="188.5" y="-340.3" font-family="Times,serif" font-size="14.00">destroy</text>
<text text-anchor="start" x="188.5" y="-325.3" font-family="Times,serif" font-size="14.00">edit</text>
<text text-anchor="start" x="188.5" y="-310.3" font-family="Times,serif" font-size="14.00">index</text>
<text text-anchor="start" x="188.5" y="-295.3" font-family="Times,serif" font-size="14.00">new</text>
<text text-anchor="start" x="188.5" y="-280.3" font-family="Times,serif" font-size="14.00">show</text>
<text text-anchor="start" x="188.5" y="-265.3" font-family="Times,serif" font-size="14.00">update</text>
<polyline fill="none" stroke="black" points="180.5,-257.5 295.5,-257.5 "/>
<polyline fill="none" stroke="black" points="180.5,-233.5 295.5,-233.5 "/>
<text text-anchor="start" x="188.5" y="-218.3" font-family="Times,serif" font-size="14.00">_layout</text>
<text text-anchor="start" x="188.5" y="-203.3" font-family="Times,serif" font-size="14.00">set_visitor</text>
<text text-anchor="start" x="188.5" y="-188.3" font-family="Times,serif" font-size="14.00">visitor_params</text>
</g>
<!-- EmployeesController -->
<g id="node5" class="node"><title>EmployeesController</title>
<path fill="none" stroke="black" d="M-59.5,107.5C-59.5,107.5 49.5,107.5 49.5,107.5 55.5,107.5 61.5,101.5 61.5,95.5 61.5,95.5 61.5,-93.5 61.5,-93.5 61.5,-99.5 55.5,-105.5 49.5,-105.5 49.5,-105.5 -59.5,-105.5 -59.5,-105.5 -65.5,-105.5 -71.5,-99.5 -71.5,-93.5 -71.5,-93.5 -71.5,95.5 -71.5,95.5 -71.5,101.5 -65.5,107.5 -59.5,107.5"/>
<text text-anchor="middle" x="-5" y="-90.3" font-family="Times,serif" font-size="14.00">EmployeesController</text>
<polyline fill="none" stroke="black" points="-71.5,-82.5 61.5,-82.5 "/>
<text text-anchor="start" x="-63.5" y="-67.3" font-family="Times,serif" font-size="14.00">create</text>
<text text-anchor="start" x="-63.5" y="-52.3" font-family="Times,serif" font-size="14.00">destroy</text>
<text text-anchor="start" x="-63.5" y="-37.3" font-family="Times,serif" font-size="14.00">edit</text>
<text text-anchor="start" x="-63.5" y="-22.3" font-family="Times,serif" font-size="14.00">index</text>
<text text-anchor="start" x="-63.5" y="-7.3" font-family="Times,serif" font-size="14.00">new</text>
<text text-anchor="start" x="-63.5" y="7.7" font-family="Times,serif" font-size="14.00">show</text>
<text text-anchor="start" x="-63.5" y="22.7" font-family="Times,serif" font-size="14.00">update</text>
<polyline fill="none" stroke="black" points="-71.5,30.5 61.5,30.5 "/>
<polyline fill="none" stroke="black" points="-71.5,54.5 61.5,54.5 "/>
<text text-anchor="start" x="-63.5" y="69.7" font-family="Times,serif" font-size="14.00">_layout</text>
<text text-anchor="start" x="-63.5" y="84.7" font-family="Times,serif" font-size="14.00">employee_params</text>
<text text-anchor="start" x="-63.5" y="99.7" font-family="Times,serif" font-size="14.00">set_employee</text>
</g>
<!-- WelcomeController -->
<g id="node6" class="node"><title>WelcomeController</title>
<path fill="none" stroke="black" d="M-365.5,-379C-365.5,-379 -264.5,-379 -264.5,-379 -258.5,-379 -252.5,-385 -252.5,-391 -252.5,-391 -252.5,-505 -252.5,-505 -252.5,-511 -258.5,-517 -264.5,-517 -264.5,-517 -365.5,-517 -365.5,-517 -371.5,-517 -377.5,-511 -377.5,-505 -377.5,-505 -377.5,-391 -377.5,-391 -377.5,-385 -371.5,-379 -365.5,-379"/>
<text text-anchor="middle" x="-315" y="-501.8" font-family="Times,serif" font-size="14.00">WelcomeController</text>
<polyline fill="none" stroke="black" points="-377.5,-494 -252.5,-494 "/>
<text text-anchor="start" x="-369.5" y="-478.8" font-family="Times,serif" font-size="14.00">create</text>
<text text-anchor="start" x="-369.5" y="-463.8" font-family="Times,serif" font-size="14.00">destroy</text>
<text text-anchor="start" x="-369.5" y="-448.8" font-family="Times,serif" font-size="14.00">index</text>
<text text-anchor="start" x="-369.5" y="-433.8" font-family="Times,serif" font-size="14.00">new</text>
<polyline fill="none" stroke="black" points="-377.5,-426 -252.5,-426 "/>
<polyline fill="none" stroke="black" points="-377.5,-402 -252.5,-402 "/>
<text text-anchor="start" x="-369.5" y="-386.8" font-family="Times,serif" font-size="14.00">_layout</text>
</g>
<!-- BuildingsController -->
<g id="node7" class="node"><title>BuildingsController</title>
<path fill="none" stroke="black" d="M-221.5,-0.5C-221.5,-0.5 -120.5,-0.5 -120.5,-0.5 -114.5,-0.5 -108.5,-6.5 -108.5,-12.5 -108.5,-12.5 -108.5,-201.5 -108.5,-201.5 -108.5,-207.5 -114.5,-213.5 -120.5,-213.5 -120.5,-213.5 -221.5,-213.5 -221.5,-213.5 -227.5,-213.5 -233.5,-207.5 -233.5,-201.5 -233.5,-201.5 -233.5,-12.5 -233.5,-12.5 -233.5,-6.5 -227.5,-0.5 -221.5,-0.5"/>
<text text-anchor="middle" x="-171" y="-198.3" font-family="Times,serif" font-size="14.00">BuildingsController</text>
<polyline fill="none" stroke="black" points="-233.5,-190.5 -108.5,-190.5 "/>
<text text-anchor="start" x="-225.5" y="-175.3" font-family="Times,serif" font-size="14.00">create</text>
<text text-anchor="start" x="-225.5" y="-160.3" font-family="Times,serif" font-size="14.00">destroy</text>
<text text-anchor="start" x="-225.5" y="-145.3" font-family="Times,serif" font-size="14.00">edit</text>
<text text-anchor="start" x="-225.5" y="-130.3" font-family="Times,serif" font-size="14.00">index</text>
<text text-anchor="start" x="-225.5" y="-115.3" font-family="Times,serif" font-size="14.00">new</text>
<text text-anchor="start" x="-225.5" y="-100.3" font-family="Times,serif" font-size="14.00">show</text>
<text text-anchor="start" x="-225.5" y="-85.3" font-family="Times,serif" font-size="14.00">update</text>
<polyline fill="none" stroke="black" points="-233.5,-77.5 -108.5,-77.5 "/>
<polyline fill="none" stroke="black" points="-233.5,-53.5 -108.5,-53.5 "/>
<text text-anchor="start" x="-225.5" y="-38.3" font-family="Times,serif" font-size="14.00">_layout</text>
<text text-anchor="start" x="-225.5" y="-23.3" font-family="Times,serif" font-size="14.00">building_params</text>
<text text-anchor="start" x="-225.5" y="-8.3" font-family="Times,serif" font-size="14.00">set_building</text>
</g>
<!-- PasswordResetsController -->
<g id="node8" class="node"><title>PasswordResetsController</title>
<path fill="none" stroke="black" d="M336.5,-271C336.5,-271 471.5,-271 471.5,-271 477.5,-271 483.5,-277 483.5,-283 483.5,-283 483.5,-397 483.5,-397 483.5,-403 477.5,-409 471.5,-409 471.5,-409 336.5,-409 336.5,-409 330.5,-409 324.5,-403 324.5,-397 324.5,-397 324.5,-283 324.5,-283 324.5,-277 330.5,-271 336.5,-271"/>
<text text-anchor="middle" x="404" y="-393.8" font-family="Times,serif" font-size="14.00">PasswordResetsController</text>
<polyline fill="none" stroke="black" points="324.5,-386 483.5,-386 "/>
<text text-anchor="start" x="332.5" y="-370.8" font-family="Times,serif" font-size="14.00">create</text>
<text text-anchor="start" x="332.5" y="-355.8" font-family="Times,serif" font-size="14.00">edit</text>
<text text-anchor="start" x="332.5" y="-340.8" font-family="Times,serif" font-size="14.00">new</text>
<text text-anchor="start" x="332.5" y="-325.8" font-family="Times,serif" font-size="14.00">update</text>
<polyline fill="none" stroke="black" points="324.5,-318 483.5,-318 "/>
<polyline fill="none" stroke="black" points="324.5,-294 483.5,-294 "/>
<text text-anchor="start" x="332.5" y="-278.8" font-family="Times,serif" font-size="14.00">_layout</text>
</g>
<!-- LinensController -->
<g id="node9" class="node"><title>LinensController</title>
<path fill="none" stroke="black" d="M336.5,-18.5C336.5,-18.5 421.5,-18.5 421.5,-18.5 427.5,-18.5 433.5,-24.5 433.5,-30.5 433.5,-30.5 433.5,-219.5 433.5,-219.5 433.5,-225.5 427.5,-231.5 421.5,-231.5 421.5,-231.5 336.5,-231.5 336.5,-231.5 330.5,-231.5 324.5,-225.5 324.5,-219.5 324.5,-219.5 324.5,-30.5 324.5,-30.5 324.5,-24.5 330.5,-18.5 336.5,-18.5"/>
<text text-anchor="middle" x="379" y="-216.3" font-family="Times,serif" font-size="14.00">LinensController</text>
<polyline fill="none" stroke="black" points="324.5,-208.5 433.5,-208.5 "/>
<text text-anchor="start" x="332.5" y="-193.3" font-family="Times,serif" font-size="14.00">create</text>
<text text-anchor="start" x="332.5" y="-178.3" font-family="Times,serif" font-size="14.00">destroy</text>
<text text-anchor="start" x="332.5" y="-163.3" font-family="Times,serif" font-size="14.00">edit</text>
<text text-anchor="start" x="332.5" y="-148.3" font-family="Times,serif" font-size="14.00">index</text>
<text text-anchor="start" x="332.5" y="-133.3" font-family="Times,serif" font-size="14.00">new</text>
<text text-anchor="start" x="332.5" y="-118.3" font-family="Times,serif" font-size="14.00">show</text>
<text text-anchor="start" x="332.5" y="-103.3" font-family="Times,serif" font-size="14.00">update</text>
<polyline fill="none" stroke="black" points="324.5,-95.5 433.5,-95.5 "/>
<polyline fill="none" stroke="black" points="324.5,-71.5 433.5,-71.5 "/>
<text text-anchor="start" x="332.5" y="-56.3" font-family="Times,serif" font-size="14.00">_layout</text>
<text text-anchor="start" x="332.5" y="-41.3" font-family="Times,serif" font-size="14.00">linen_params</text>
<text text-anchor="start" x="332.5" y="-26.3" font-family="Times,serif" font-size="14.00">set_linen</text>
</g>
<!-- PeopleController -->
<g id="node10" class="node"><title>PeopleController</title>
<path fill="none" stroke="black" d="M246,233.5C246,233.5 344,233.5 344,233.5 350,233.5 356,227.5 356,221.5 356,221.5 356,32.5 356,32.5 356,26.5 350,20.5 344,20.5 344,20.5 246,20.5 246,20.5 240,20.5 234,26.5 234,32.5 234,32.5 234,221.5 234,221.5 234,227.5 240,233.5 246,233.5"/>
<text text-anchor="middle" x="295" y="35.7" font-family="Times,serif" font-size="14.00">PeopleController</text>
<polyline fill="none" stroke="black" points="234,43.5 356,43.5 "/>
<text text-anchor="start" x="242" y="58.7" font-family="Times,serif" font-size="14.00">create</text>
<text text-anchor="start" x="242" y="73.7" font-family="Times,serif" font-size="14.00">destroy</text>
<text text-anchor="start" x="242" y="88.7" font-family="Times,serif" font-size="14.00">edit</text>
<text text-anchor="start" x="242" y="103.7" font-family="Times,serif" font-size="14.00">new</text>
<text text-anchor="start" x="242" y="118.7" font-family="Times,serif" font-size="14.00">select_tenants_type</text>
<text text-anchor="start" x="242" y="133.7" font-family="Times,serif" font-size="14.00">show</text>
<text text-anchor="start" x="242" y="148.7" font-family="Times,serif" font-size="14.00">update</text>
<polyline fill="none" stroke="black" points="234,156.5 356,156.5 "/>
<polyline fill="none" stroke="black" points="234,180.5 356,180.5 "/>
<text text-anchor="start" x="242" y="195.7" font-family="Times,serif" font-size="14.00">_layout</text>
<text text-anchor="start" x="242" y="210.7" font-family="Times,serif" font-size="14.00">person_params</text>
<text text-anchor="start" x="242" y="225.7" font-family="Times,serif" font-size="14.00">set_person</text>
</g>
<!-- ApplicationController -->
<g id="node11" class="node"><title>ApplicationController</title>
<path fill="none" stroke="black" d="M-78,395.5C-78,395.5 34,395.5 34,395.5 40,395.5 46,389.5 46,383.5 46,383.5 46,268.5 46,268.5 46,262.5 40,256.5 34,256.5 34,256.5 -78,256.5 -78,256.5 -84,256.5 -90,262.5 -90,268.5 -90,268.5 -90,383.5 -90,383.5 -90,389.5 -84,395.5 -78,395.5"/>
<text text-anchor="middle" x="-22" y="271.7" font-family="Times,serif" font-size="14.00">ApplicationController</text>
<polyline fill="none" stroke="black" points="-90,279.5 46,279.5 "/>
<polyline fill="none" stroke="black" points="-90,303.5 46,303.5 "/>
<polyline fill="none" stroke="black" points="-90,327.5 46,327.5 "/>
<text text-anchor="start" x="-82" y="342.7" font-family="Times,serif" font-size="14.00">_layout</text>
<text text-anchor="start" x="-82" y="357.7" font-family="Times,serif" font-size="14.00">check_app_auth</text>
<text text-anchor="start" x="-82" y="372.7" font-family="Times,serif" font-size="14.00">load_current_user</text>
<text text-anchor="start" x="-82" y="387.7" font-family="Times,serif" font-size="14.00">not_authenticated</text>
</g>
<!-- RequestsController -->
<g id="node12" class="node"><title>RequestsController</title>
<path fill="none" stroke="black" d="M-239.5,251.5C-239.5,251.5 -142.5,251.5 -142.5,251.5 -136.5,251.5 -130.5,245.5 -130.5,239.5 -130.5,239.5 -130.5,50.5 -130.5,50.5 -130.5,44.5 -136.5,38.5 -142.5,38.5 -142.5,38.5 -239.5,38.5 -239.5,38.5 -245.5,38.5 -251.5,44.5 -251.5,50.5 -251.5,50.5 -251.5,239.5 -251.5,239.5 -251.5,245.5 -245.5,251.5 -239.5,251.5"/>
<text text-anchor="middle" x="-191" y="53.7" font-family="Times,serif" font-size="14.00">RequestsController</text>
<polyline fill="none" stroke="black" points="-251.5,61.5 -130.5,61.5 "/>
<text text-anchor="start" x="-243.5" y="76.7" font-family="Times,serif" font-size="14.00">create</text>
<text text-anchor="start" x="-243.5" y="91.7" font-family="Times,serif" font-size="14.00">destroy</text>
<text text-anchor="start" x="-243.5" y="106.7" font-family="Times,serif" font-size="14.00">edit</text>
<text text-anchor="start" x="-243.5" y="121.7" font-family="Times,serif" font-size="14.00">index</text>
<text text-anchor="start" x="-243.5" y="136.7" font-family="Times,serif" font-size="14.00">new</text>
<text text-anchor="start" x="-243.5" y="151.7" font-family="Times,serif" font-size="14.00">show</text>
<text text-anchor="start" x="-243.5" y="166.7" font-family="Times,serif" font-size="14.00">update</text>
<polyline fill="none" stroke="black" points="-251.5,174.5 -130.5,174.5 "/>
<polyline fill="none" stroke="black" points="-251.5,198.5 -130.5,198.5 "/>
<text text-anchor="start" x="-243.5" y="213.7" font-family="Times,serif" font-size="14.00">_layout</text>
<text text-anchor="start" x="-243.5" y="228.7" font-family="Times,serif" font-size="14.00">request_params</text>
<text text-anchor="start" x="-243.5" y="243.7" font-family="Times,serif" font-size="14.00">set_request</text>
</g>
<!-- RoomsController -->
<g id="node13" class="node"><title>RoomsController</title>
<path fill="none" stroke="black" d="M102.5,89C102.5,89 189.5,89 189.5,89 195.5,89 201.5,83 201.5,77 201.5,77 201.5,-127 201.5,-127 201.5,-133 195.5,-139 189.5,-139 189.5,-139 102.5,-139 102.5,-139 96.5,-139 90.5,-133 90.5,-127 90.5,-127 90.5,77 90.5,77 90.5,83 96.5,89 102.5,89"/>
<text text-anchor="middle" x="146" y="-123.8" font-family="Times,serif" font-size="14.00">RoomsController</text>
<polyline fill="none" stroke="black" points="90.5,-116 201.5,-116 "/>
<text text-anchor="start" x="98.5" y="-100.8" font-family="Times,serif" font-size="14.00">add</text>
<text text-anchor="start" x="98.5" y="-85.8" font-family="Times,serif" font-size="14.00">create</text>
<text text-anchor="start" x="98.5" y="-70.8" font-family="Times,serif" font-size="14.00">destroy</text>
<text text-anchor="start" x="98.5" y="-55.8" font-family="Times,serif" font-size="14.00">edit</text>
<text text-anchor="start" x="98.5" y="-40.8" font-family="Times,serif" font-size="14.00">index</text>
<text text-anchor="start" x="98.5" y="-25.8" font-family="Times,serif" font-size="14.00">new</text>
<text text-anchor="start" x="98.5" y="-10.8" font-family="Times,serif" font-size="14.00">show</text>
<text text-anchor="start" x="98.5" y="4.2" font-family="Times,serif" font-size="14.00">update</text>
<polyline fill="none" stroke="black" points="90.5,12 201.5,12 "/>
<polyline fill="none" stroke="black" points="90.5,36 201.5,36 "/>
<text text-anchor="start" x="98.5" y="51.2" font-family="Times,serif" font-size="14.00">_layout</text>
<text text-anchor="start" x="98.5" y="66.2" font-family="Times,serif" font-size="14.00">room_params</text>
<text text-anchor="start" x="98.5" y="81.2" font-family="Times,serif" font-size="14.00">set_room</text>
</g>
<!-- UsersController -->
<g id="node14" class="node"><title>UsersController</title>
<path fill="none" stroke="black" d="M-203.5,-253C-203.5,-253 -124.5,-253 -124.5,-253 -118.5,-253 -112.5,-259 -112.5,-265 -112.5,-265 -112.5,-469 -112.5,-469 -112.5,-475 -118.5,-481 -124.5,-481 -124.5,-481 -203.5,-481 -203.5,-481 -209.5,-481 -215.5,-475 -215.5,-469 -215.5,-469 -215.5,-265 -215.5,-265 -215.5,-259 -209.5,-253 -203.5,-253"/>
<text text-anchor="middle" x="-164" y="-465.8" font-family="Times,serif" font-size="14.00">UsersController</text>
<polyline fill="none" stroke="black" points="-215.5,-458 -112.5,-458 "/>
<text text-anchor="start" x="-207.5" y="-442.8" font-family="Times,serif" font-size="14.00">activate</text>
<text text-anchor="start" x="-207.5" y="-427.8" font-family="Times,serif" font-size="14.00">create</text>
<text text-anchor="start" x="-207.5" y="-412.8" font-family="Times,serif" font-size="14.00">destroy</text>
<text text-anchor="start" x="-207.5" y="-397.8" font-family="Times,serif" font-size="14.00">edit</text>
<text text-anchor="start" x="-207.5" y="-382.8" font-family="Times,serif" font-size="14.00">index</text>
<text text-anchor="start" x="-207.5" y="-367.8" font-family="Times,serif" font-size="14.00">new</text>
<text text-anchor="start" x="-207.5" y="-352.8" font-family="Times,serif" font-size="14.00">show</text>
<text text-anchor="start" x="-207.5" y="-337.8" font-family="Times,serif" font-size="14.00">update</text>
<polyline fill="none" stroke="black" points="-215.5,-330 -112.5,-330 "/>
<polyline fill="none" stroke="black" points="-215.5,-306 -112.5,-306 "/>
<text text-anchor="start" x="-207.5" y="-290.8" font-family="Times,serif" font-size="14.00">_layout</text>
<text text-anchor="start" x="-207.5" y="-275.8" font-family="Times,serif" font-size="14.00">set_user</text>
<text text-anchor="start" x="-207.5" y="-260.8" font-family="Times,serif" font-size="14.00">user_params</text>
</g>
</g>
</svg>
