<?xml version="1.0" encoding="UTF-8" standalone="no"?>
<!DOCTYPE svg PUBLIC "-//W3C//DTD SVG 1.1//EN"
 "http://www.w3.org/Graphics/SVG/1.1/DTD/svg11.dtd">
<!-- Generated by graphviz version 2.38.0 (20140413.2041)
 -->
<!-- Title: models_diagram Pages: 1 -->
<svg width="678pt" height="518pt"
 viewBox="0.00 0.00 677.84 518.00" xmlns="http://www.w3.org/2000/svg" xmlns:xlink="http://www.w3.org/1999/xlink">
<g id="graph0" class="graph" transform="scale(1 1) rotate(0) translate(4 514)">
<title>models_diagram</title>
<polygon fill="none" stroke="none" points="-4,4 -4,-514 673.844,-514 673.844,4 -4,4"/>
<!-- _diagram_info -->
<g id="node1" class="node"><title>_diagram_info</title>
<text text-anchor="start" x="231.309" y="-495.6" font-family="Times,serif" font-size="13.00">Models diagram</text>
<text text-anchor="start" x="231.309" y="-481.6" font-family="Times,serif" font-size="13.00">Date: May 25 2016 &#45; 00:42</text>
<text text-anchor="start" x="231.309" y="-467.6" font-family="Times,serif" font-size="13.00">Migration version: 20160524153942</text>
<text text-anchor="start" x="231.309" y="-453.6" font-family="Times,serif" font-size="13.00">Generated by RailRoady 1.4.2</text>
<text text-anchor="start" x="231.309" y="-439.6" font-family="Times,serif" font-size="13.00">http://railroady.prestonlee.com</text>
</g>
<!-- Student -->
<g id="node2" class="node"><title>Student</title>
<ellipse fill="none" stroke="black" cx="456.309" cy="-378" rx="37.8943" ry="18"/>
<text text-anchor="middle" x="456.309" y="-374.3" font-family="Times,serif" font-size="14.00">Student</text>
</g>
<!-- Tenant -->
<g id="node12" class="node"><title>Tenant</title>
<ellipse fill="none" stroke="black" cx="456.309" cy="-234" rx="35.194" ry="18"/>
<text text-anchor="middle" x="456.309" y="-230.3" font-family="Times,serif" font-size="14.00">Tenant</text>
</g>
<!-- Student&#45;&gt;Tenant -->
<g id="edge1" class="edge"><title>Student&#45;&gt;Tenant</title>
<path fill="none" stroke="#b298f5" d="M456.309,-351.558C456.309,-325.771 456.309,-286.104 456.309,-260.35"/>
<ellipse fill="none" stroke="#b298f5" cx="456.309" cy="-355.871" rx="4" ry="4"/>
<ellipse fill="#b298f5" stroke="#b298f5" cx="456.309" cy="-256.189" rx="4" ry="4"/>
</g>
<!-- Relative -->
<g id="node15" class="node"><title>Relative</title>
<ellipse fill="none" stroke="black" cx="524.309" cy="-306" rx="40.0939" ry="18"/>
<text text-anchor="middle" x="524.309" y="-302.3" font-family="Times,serif" font-size="14.00">Relative</text>
</g>
<!-- Student&#45;&gt;Relative -->
<g id="edge2" class="edge"><title>Student&#45;&gt;Relative</title>
<path fill="none" stroke="#ab3844" d="M477.155,-355.542C484.962,-347.505 493.863,-338.341 501.814,-330.157"/>
<ellipse fill="none" stroke="#ab3844" cx="474.188" cy="-358.596" rx="4.00002" ry="4.00002"/>
<polygon fill="#ab3844" stroke="#ab3844" points="501.821,-330.15 512.016,-326.113 505.305,-326.564 508.789,-322.977 508.789,-322.977 508.789,-322.977 505.305,-326.564 505.561,-319.842 501.821,-330.15 501.821,-330.15"/>
</g>
<!-- Furniture -->
<g id="node3" class="node"><title>Furniture</title>
<ellipse fill="none" stroke="black" cx="228.309" cy="-234" rx="43.5923" ry="18"/>
<text text-anchor="middle" x="228.309" y="-230.3" font-family="Times,serif" font-size="14.00">Furniture</text>
</g>
<!-- Room -->
<g id="node18" class="node"><title>Room</title>
<ellipse fill="none" stroke="black" cx="259.309" cy="-162" rx="32.4942" ry="18"/>
<text text-anchor="middle" x="259.309" y="-158.3" font-family="Times,serif" font-size="14.00">Room</text>
</g>
<!-- Furniture&#45;&gt;Room -->
<g id="edge4" class="edge"><title>Furniture&#45;&gt;Room</title>
<path fill="none" stroke="#a03c79" d="M239.95,-206.714C242.509,-200.935 245.218,-194.818 247.773,-189.049"/>
<polygon fill="#a03c79" stroke="#a03c79" points="239.863,-206.911 231.699,-214.233 237.838,-211.483 235.814,-216.055 235.814,-216.055 235.814,-216.055 237.838,-211.483 239.928,-217.877 239.863,-206.911 239.863,-206.911"/>
<polygon fill="#a03c79" stroke="#a03c79" points="247.825,-188.933 255.989,-181.611 249.849,-184.361 251.874,-179.789 251.874,-179.789 251.874,-179.789 249.849,-184.361 247.76,-177.967 247.825,-188.933 247.825,-188.933"/>
</g>
<!-- Furnitureinroom -->
<g id="node19" class="node"><title>Furnitureinroom</title>
<ellipse fill="none" stroke="black" cx="199.309" cy="-90" rx="69.5877" ry="18"/>
<text text-anchor="middle" x="199.309" y="-86.3" font-family="Times,serif" font-size="14.00">Furnitureinroom</text>
</g>
<!-- Furniture&#45;&gt;Furnitureinroom -->
<g id="edge3" class="edge"><title>Furniture&#45;&gt;Furnitureinroom</title>
<path fill="none" stroke="#6cad45" d="M223.189,-207.929C218.042,-182.725 210.132,-143.994 204.843,-118.095"/>
<ellipse fill="none" stroke="#6cad45" cx="224.011" cy="-211.952" rx="4.00001" ry="4.00001"/>
<polygon fill="#6cad45" stroke="#6cad45" points="204.821,-117.987 207.229,-107.289 203.82,-113.088 202.82,-108.189 202.82,-108.189 202.82,-108.189 203.82,-113.088 198.411,-109.09 204.821,-117.987 204.821,-117.987"/>
</g>
<!-- Linen -->
<g id="node4" class="node"><title>Linen</title>
<ellipse fill="none" stroke="black" cx="359.309" cy="-306" rx="31.3957" ry="18"/>
<text text-anchor="middle" x="359.309" y="-302.3" font-family="Times,serif" font-size="14.00">Linen</text>
</g>
<!-- Linenattenant -->
<g id="node8" class="node"><title>Linenattenant</title>
<ellipse fill="none" stroke="black" cx="369.309" cy="-162" rx="59.2899" ry="18"/>
<text text-anchor="middle" x="369.309" y="-158.3" font-family="Times,serif" font-size="14.00">Linenattenant</text>
</g>
<!-- Linen&#45;&gt;Linenattenant -->
<g id="edge5" class="edge"><title>Linen&#45;&gt;Linenattenant</title>
<path fill="none" stroke="#869b73" d="M361.101,-279.558C362.87,-254.444 365.565,-216.164 367.38,-190.393"/>
<ellipse fill="none" stroke="#869b73" cx="360.797" cy="-283.881" rx="4" ry="4"/>
<polygon fill="#869b73" stroke="#869b73" points="367.396,-190.165 372.588,-180.505 367.747,-185.177 368.099,-180.189 368.099,-180.189 368.099,-180.189 367.747,-185.177 363.61,-179.873 367.396,-190.165 367.396,-190.165"/>
</g>
<!-- Linen&#45;&gt;Tenant -->
<g id="edge6" class="edge"><title>Linen&#45;&gt;Tenant</title>
<path fill="none" stroke="#898b19" d="M386.423,-285.433C399.517,-275.984 415.211,-264.658 428.407,-255.136"/>
<polygon fill="#898b19" stroke="#898b19" points="386.121,-285.651 375.379,-287.854 382.066,-288.577 378.012,-291.503 378.012,-291.503 378.012,-291.503 382.066,-288.577 380.645,-295.152 386.121,-285.651 386.121,-285.651"/>
<polygon fill="#898b19" stroke="#898b19" points="428.556,-255.028 439.299,-252.825 432.611,-252.102 436.665,-249.176 436.665,-249.176 436.665,-249.176 432.611,-252.102 434.032,-245.527 428.556,-255.028 428.556,-255.028"/>
</g>
<!-- Request -->
<g id="node5" class="node"><title>Request</title>
<ellipse fill="none" stroke="black" cx="165.309" cy="-18" rx="38.9931" ry="18"/>
<text text-anchor="middle" x="165.309" y="-14.3" font-family="Times,serif" font-size="14.00">Request</text>
</g>
<!-- Person -->
<g id="node6" class="node"><title>Person</title>
<ellipse fill="none" stroke="black" cx="489.309" cy="-471" rx="34.394" ry="18"/>
<text text-anchor="middle" x="489.309" y="-467.3" font-family="Times,serif" font-size="14.00">Person</text>
</g>
<!-- Person&#45;&gt;Student -->
<g id="edge7" class="edge"><title>Person&#45;&gt;Student</title>
<path fill="none" stroke="#3f548a" d="M480.301,-445.159C475.619,-432.249 469.916,-416.522 465.245,-403.641"/>
<ellipse fill="none" stroke="#3f548a" cx="481.739" cy="-449.123" rx="4.00001" ry="4.00001"/>
<ellipse fill="#3f548a" stroke="#3f548a" cx="463.852" cy="-399.8" rx="4.00001" ry="4.00001"/>
</g>
<!-- Guest -->
<g id="node11" class="node"><title>Guest</title>
<ellipse fill="none" stroke="black" cx="369.309" cy="-378" rx="31.3957" ry="18"/>
<text text-anchor="middle" x="369.309" y="-374.3" font-family="Times,serif" font-size="14.00">Guest</text>
</g>
<!-- Person&#45;&gt;Guest -->
<g id="edge10" class="edge"><title>Person&#45;&gt;Guest</title>
<path fill="none" stroke="#68d952" d="M466.762,-449.161C460.293,-443.435 453.139,-437.337 446.309,-432 430.265,-419.463 411.451,-406.484 396.437,-396.508"/>
<ellipse fill="none" stroke="#68d952" cx="469.986" cy="-452.051" rx="4.00002" ry="4.00002"/>
<ellipse fill="#68d952" stroke="#68d952" cx="392.74" cy="-394.069" rx="4.00002" ry="4.00002"/>
</g>
<!-- Workman -->
<g id="node13" class="node"><title>Workman</title>
<ellipse fill="none" stroke="black" cx="597.309" cy="-378" rx="46.5926" ry="18"/>
<text text-anchor="middle" x="597.309" y="-374.3" font-family="Times,serif" font-size="14.00">Workman</text>
</g>
<!-- Person&#45;&gt;Workman -->
<g id="edge8" class="edge"><title>Person&#45;&gt;Workman</title>
<path fill="none" stroke="#1bcfd6" d="M512.752,-449.597C519.375,-443.876 526.604,-437.67 533.309,-432 545.949,-421.31 560.117,-409.555 571.903,-399.837"/>
<ellipse fill="none" stroke="#1bcfd6" cx="509.397" cy="-452.501" rx="4.00002" ry="4.00002"/>
<ellipse fill="#1bcfd6" stroke="#1bcfd6" cx="575.093" cy="-397.21" rx="4.00002" ry="4.00002"/>
</g>
<!-- Employee -->
<g id="node14" class="node"><title>Employee</title>
<ellipse fill="none" stroke="black" cx="96.3093" cy="-306" rx="46.5926" ry="18"/>
<text text-anchor="middle" x="96.3093" y="-302.3" font-family="Times,serif" font-size="14.00">Employee</text>
</g>
<!-- Person&#45;&gt;Employee -->
<g id="edge12" class="edge"><title>Person&#45;&gt;Employee</title>
<path fill="none" stroke="#7795ac" d="M469.881,-448.468C463.049,-442.17 454.913,-435.929 446.309,-432 336.588,-381.893 284.147,-451.992 177.309,-396 148.547,-380.926 124.852,-351.348 110.673,-330.436"/>
<ellipse fill="none" stroke="#7795ac" cx="472.9" cy="-451.411" rx="4.00002" ry="4.00002"/>
<ellipse fill="#7795ac" stroke="#7795ac" cx="108.439" cy="-327.048" rx="4.00002" ry="4.00002"/>
</g>
<!-- Person&#45;&gt;Relative -->
<g id="edge9" class="edge"><title>Person&#45;&gt;Relative</title>
<path fill="none" stroke="#e3351d" d="M494.689,-444.945C501.241,-414.434 512.246,-363.179 518.839,-332.477"/>
<ellipse fill="none" stroke="#e3351d" cx="493.829" cy="-448.953" rx="4.00001" ry="4.00001"/>
<ellipse fill="#e3351d" stroke="#e3351d" cx="519.734" cy="-328.308" rx="4.00001" ry="4.00001"/>
</g>
<!-- Visitor -->
<g id="node16" class="node"><title>Visitor</title>
<ellipse fill="none" stroke="black" cx="557.309" cy="-162" rx="35.194" ry="18"/>
<text text-anchor="middle" x="557.309" y="-158.3" font-family="Times,serif" font-size="14.00">Visitor</text>
</g>
<!-- Person&#45;&gt;Visitor -->
<g id="edge11" class="edge"><title>Person&#45;&gt;Visitor</title>
<path fill="none" stroke="#341c2a" d="M510.009,-448.974C516.953,-442.82 525.044,-436.536 533.309,-432 582.124,-405.212 620.071,-440.673 653.309,-396 704.462,-327.249 621.143,-227.307 579.178,-184.148"/>
<ellipse fill="none" stroke="#341c2a" cx="506.922" cy="-451.822" rx="4.00002" ry="4.00002"/>
<ellipse fill="#341c2a" stroke="#341c2a" cx="576.118" cy="-181.049" rx="4.00002" ry="4.00002"/>
</g>
<!-- User -->
<g id="node7" class="node"><title>User</title>
<ellipse fill="none" stroke="black" cx="569.309" cy="-471" rx="27.0966" ry="18"/>
<text text-anchor="middle" x="569.309" y="-467.3" font-family="Times,serif" font-size="14.00">User</text>
</g>
<!-- Visitortenant -->
<g id="node9" class="node"><title>Visitortenant</title>
<ellipse fill="none" stroke="black" cx="525.309" cy="-90" rx="56.59" ry="18"/>
<text text-anchor="middle" x="525.309" y="-86.3" font-family="Times,serif" font-size="14.00">Visitortenant</text>
</g>
<!-- Building -->
<g id="node10" class="node"><title>Building</title>
<ellipse fill="none" stroke="black" cx="228.309" cy="-378" rx="41.6928" ry="18"/>
<text text-anchor="middle" x="228.309" y="-374.3" font-family="Times,serif" font-size="14.00">Building</text>
</g>
<!-- Building&#45;&gt;Furniture -->
<g id="edge17" class="edge"><title>Building&#45;&gt;Furniture</title>
<path fill="none" stroke="#e6f196" d="M228.309,-351.558C228.309,-326.444 228.309,-288.164 228.309,-262.393"/>
<ellipse fill="none" stroke="#e6f196" cx="228.309" cy="-355.871" rx="4" ry="4"/>
<polygon fill="#e6f196" stroke="#e6f196" points="228.309,-262.189 232.809,-252.189 228.309,-257.189 228.309,-252.189 228.309,-252.189 228.309,-252.189 228.309,-257.189 223.809,-252.189 228.309,-262.189 228.309,-262.189"/>
</g>
<!-- Building&#45;&gt;Linen -->
<g id="edge16" class="edge"><title>Building&#45;&gt;Linen</title>
<path fill="none" stroke="#fee410" d="M260.68,-359.703C281.324,-348.672 307.927,-334.456 328.301,-323.569"/>
<ellipse fill="none" stroke="#fee410" cx="257.095" cy="-361.618" rx="4.00002" ry="4.00002"/>
<polygon fill="#fee410" stroke="#fee410" points="328.36,-323.538 339.3,-322.794 332.77,-321.182 337.18,-318.825 337.18,-318.825 337.18,-318.825 332.77,-321.182 335.059,-314.856 328.36,-323.538 328.36,-323.538"/>
</g>
<!-- Building&#45;&gt;Employee -->
<g id="edge15" class="edge"><title>Building&#45;&gt;Employee</title>
<path fill="none" stroke="#90ebe6" d="M193.741,-358.668C174.611,-348.524 150.885,-335.942 131.636,-325.734"/>
<polygon fill="#90ebe6" stroke="#90ebe6" points="194.024,-358.818 200.75,-367.479 198.441,-361.161 202.858,-363.503 202.858,-363.503 202.858,-363.503 198.441,-361.161 204.967,-359.528 194.024,-358.818 194.024,-358.818"/>
<polygon fill="#90ebe6" stroke="#90ebe6" points="131.42,-325.619 124.694,-316.959 127.003,-323.277 122.586,-320.934 122.586,-320.934 122.586,-320.934 127.003,-323.277 120.477,-324.91 131.42,-325.619 131.42,-325.619"/>
</g>
<!-- Buildingemployee -->
<g id="node17" class="node"><title>Buildingemployee</title>
<ellipse fill="none" stroke="black" cx="90.3093" cy="-234" rx="76.0865" ry="18"/>
<text text-anchor="middle" x="90.3093" y="-230.3" font-family="Times,serif" font-size="14.00">Buildingemployee</text>
</g>
<!-- Building&#45;&gt;Buildingemployee -->
<g id="edge14" class="edge"><title>Building&#45;&gt;Buildingemployee</title>
<path fill="none" stroke="#023223" d="M210.446,-354.143C195.601,-335.636 173.545,-309.247 152.309,-288 141.939,-277.624 129.809,-266.967 119.042,-257.955"/>
<ellipse fill="none" stroke="#023223" cx="213.082" cy="-357.451" rx="4.00002" ry="4.00002"/>
<polygon fill="#023223" stroke="#023223" points="118.835,-257.785 113.991,-247.947 114.98,-254.601 111.125,-251.416 111.125,-251.416 111.125,-251.416 114.98,-254.601 108.259,-254.886 118.835,-257.785 118.835,-257.785"/>
</g>
<!-- Building&#45;&gt;Room -->
<g id="edge13" class="edge"><title>Building&#45;&gt;Room</title>
<path fill="none" stroke="#31e28b" d="M241.81,-353.227C254.877,-328.748 273.779,-289.053 281.309,-252 284.496,-236.321 284.437,-231.691 281.309,-216 279.49,-206.871 276.068,-197.345 272.455,-188.929"/>
<ellipse fill="none" stroke="#31e28b" cx="239.87" cy="-356.801" rx="4.00002" ry="4.00002"/>
<polygon fill="#31e28b" stroke="#31e28b" points="272.37,-188.743 272.304,-177.777 270.291,-184.195 268.212,-179.648 268.212,-179.648 268.212,-179.648 270.291,-184.195 264.119,-181.519 272.37,-188.743 272.37,-188.743"/>
</g>
<!-- Guest&#45;&gt;Tenant -->
<g id="edge18" class="edge"><title>Guest&#45;&gt;Tenant</title>
<path fill="none" stroke="#201e4a" d="M383.492,-353.852C399.587,-327.582 425.698,-284.963 441.89,-258.535"/>
<ellipse fill="none" stroke="#201e4a" cx="381.379" cy="-357.3" rx="4.00002" ry="4.00002"/>
<ellipse fill="#201e4a" stroke="#201e4a" cx="444.088" cy="-254.947" rx="4.00002" ry="4.00002"/>
</g>
<!-- Guest&#45;&gt;Relative -->
<g id="edge19" class="edge"><title>Guest&#45;&gt;Relative</title>
<path fill="none" stroke="#2962b0" d="M400.797,-362.78C425.966,-351.413 461.283,-335.464 487.708,-323.529"/>
<ellipse fill="none" stroke="#2962b0" cx="396.834" cy="-364.57" rx="4.00002" ry="4.00002"/>
<polygon fill="#2962b0" stroke="#2962b0" points="487.893,-323.446 498.859,-323.431 492.45,-321.388 497.007,-319.33 497.007,-319.33 497.007,-319.33 492.45,-321.388 495.154,-315.229 487.893,-323.446 487.893,-323.446"/>
</g>
<!-- Tenant&#45;&gt;Linenattenant -->
<g id="edge22" class="edge"><title>Tenant&#45;&gt;Linenattenant</title>
<path fill="none" stroke="#3a036f" d="M431.974,-213.42C421.184,-204.738 408.428,-194.475 397.251,-185.482"/>
<ellipse fill="none" stroke="#3a036f" cx="435.166" cy="-215.988" rx="4.00002" ry="4.00002"/>
<polygon fill="#3a036f" stroke="#3a036f" points="397.233,-185.467 392.262,-175.692 393.337,-182.333 389.441,-179.198 389.441,-179.198 389.441,-179.198 393.337,-182.333 386.62,-182.704 397.233,-185.467 397.233,-185.467"/>
</g>
<!-- Tenant&#45;&gt;Visitortenant -->
<g id="edge20" class="edge"><title>Tenant&#45;&gt;Visitortenant</title>
<path fill="none" stroke="#3057da" d="M467.861,-209.226C480.269,-183.691 499.923,-143.243 512.719,-116.911"/>
<ellipse fill="none" stroke="#3057da" cx="466.108" cy="-212.835" rx="4.00002" ry="4.00002"/>
<polygon fill="#3057da" stroke="#3057da" points="512.726,-116.896 521.144,-109.869 514.911,-112.399 517.096,-107.902 517.096,-107.902 517.096,-107.902 514.911,-112.399 513.049,-105.935 512.726,-116.896 512.726,-116.896"/>
</g>
<!-- Tenant&#45;&gt;Visitor -->
<g id="edge21" class="edge"><title>Tenant&#45;&gt;Visitor</title>
<path fill="none" stroke="#b3ac3d" d="M484.57,-213.414C498.258,-203.926 514.672,-192.551 528.44,-183.008"/>
<polygon fill="#b3ac3d" stroke="#b3ac3d" points="484.483,-213.474 473.7,-215.472 480.373,-216.322 476.264,-219.17 476.264,-219.17 476.264,-219.17 480.373,-216.322 478.827,-222.869 484.483,-213.474 484.483,-213.474"/>
<polygon fill="#b3ac3d" stroke="#b3ac3d" points="528.832,-182.737 539.614,-180.739 532.941,-179.889 537.051,-177.041 537.051,-177.041 537.051,-177.041 532.941,-179.889 534.487,-173.342 528.832,-182.737 528.832,-182.737"/>
</g>
<!-- Tenant&#45;&gt;Room -->
<g id="edge24" class="edge"><title>Tenant&#45;&gt;Room</title>
<path fill="none" stroke="#7dc1a9" d="M417.583,-220.416C386.101,-210.029 340.621,-194.664 301.309,-180 298.923,-179.11 296.469,-178.173 294.002,-177.216"/>
<polygon fill="#7dc1a9" stroke="#7dc1a9" points="417.788,-220.484 425.882,-227.882 422.538,-222.045 427.288,-223.607 427.288,-223.607 427.288,-223.607 422.538,-222.045 428.693,-219.332 417.788,-220.484 417.788,-220.484"/>
<polygon fill="#7dc1a9" stroke="#7dc1a9" points="293.84,-177.152 286.195,-169.29 289.19,-175.313 284.54,-173.475 284.54,-173.475 284.54,-173.475 289.19,-175.313 282.886,-177.66 293.84,-177.152 293.84,-177.152"/>
</g>
<!-- Historymove -->
<g id="node20" class="node"><title>Historymove</title>
<ellipse fill="none" stroke="black" cx="344.309" cy="-90" rx="57.3905" ry="18"/>
<text text-anchor="middle" x="344.309" y="-86.3" font-family="Times,serif" font-size="14.00">Historymove</text>
</g>
<!-- Tenant&#45;&gt;Historymove -->
<g id="edge23" class="edge"><title>Tenant&#45;&gt;Historymove</title>
<path fill="none" stroke="#19d50f" d="M456.331,-207.929C455.162,-188.757 450.879,-162.55 437.309,-144 425.737,-128.181 407.915,-116.4 390.957,-108.016"/>
<ellipse fill="none" stroke="#19d50f" cx="456.498" cy="-211.934" rx="4" ry="4"/>
<polygon fill="#19d50f" stroke="#19d50f" points="390.739,-107.915 383.565,-99.6217 386.205,-105.809 381.67,-103.703 381.67,-103.703 381.67,-103.703 386.205,-105.809 379.774,-107.784 390.739,-107.915 390.739,-107.915"/>
</g>
<!-- Workman&#45;&gt;Tenant -->
<g id="edge25" class="edge"><title>Workman&#45;&gt;Tenant</title>
<path fill="none" stroke="#44c94d" d="M596.22,-351.823C594.145,-332.372 588.476,-305.846 573.309,-288 553.698,-264.925 521.969,-251.417 496.497,-243.819"/>
<ellipse fill="none" stroke="#44c94d" cx="596.578" cy="-355.958" rx="4" ry="4"/>
<ellipse fill="#44c94d" stroke="#44c94d" cx="492.32" cy="-242.641" rx="4.00001" ry="4.00001"/>
</g>
<!-- Workman&#45;&gt;Relative -->
<g id="edge26" class="edge"><title>Workman&#45;&gt;Relative</title>
<path fill="none" stroke="#dbcb96" d="M574.832,-355.446C566.264,-347.231 556.481,-337.85 547.821,-329.545"/>
<ellipse fill="none" stroke="#dbcb96" cx="577.857" cy="-358.347" rx="4.00002" ry="4.00002"/>
<polygon fill="#dbcb96" stroke="#dbcb96" points="547.775,-329.501 543.672,-319.332 544.166,-326.041 540.557,-322.58 540.557,-322.58 540.557,-322.58 544.166,-326.041 537.443,-325.828 547.775,-329.501 547.775,-329.501"/>
</g>
<!-- Employee&#45;&gt;Request -->
<g id="edge27" class="edge"><title>Employee&#45;&gt;Request</title>
<path fill="none" stroke="#bff698" d="M52.8428,-290.794C34.7938,-282.501 15.6735,-270.03 5.30928,-252 -2.66443,-238.128 0.0195716,-231.1 5.30928,-216 31.6922,-140.686 100.83,-73.3331 139.02,-40.3743"/>
<ellipse fill="none" stroke="#bff698" cx="56.812" cy="-292.509" rx="4.00002" ry="4.00002"/>
<polygon fill="#bff698" stroke="#bff698" points="139.052,-40.3472 149.587,-37.3023 142.863,-37.11 146.673,-33.8728 146.673,-33.8728 146.673,-33.8728 142.863,-37.11 143.76,-30.4433 139.052,-40.3472 139.052,-40.3472"/>
</g>
<!-- Employee&#45;&gt;Buildingemployee -->
<g id="edge28" class="edge"><title>Employee&#45;&gt;Buildingemployee</title>
<path fill="none" stroke="#079c92" d="M94.1356,-279.64C93.6575,-274.063 93.1492,-268.132 92.6644,-262.476"/>
<ellipse fill="none" stroke="#079c92" cx="94.4845" cy="-283.711" rx="4" ry="4"/>
<polygon fill="#079c92" stroke="#079c92" points="92.6295,-262.068 96.2589,-251.72 92.2024,-257.086 91.7754,-252.104 91.7754,-252.104 91.7754,-252.104 92.2024,-257.086 87.2918,-252.489 92.6295,-262.068 92.6295,-262.068"/>
</g>
<!-- Relative&#45;&gt;Tenant -->
<g id="edge29" class="edge"><title>Relative&#45;&gt;Tenant</title>
<path fill="none" stroke="#2b8e74" d="M503.042,-283.107C494.807,-274.63 485.408,-264.954 477.208,-256.514"/>
<ellipse fill="none" stroke="#2b8e74" cx="506.092" cy="-286.247" rx="4.00002" ry="4.00002"/>
<ellipse fill="#2b8e74" stroke="#2b8e74" cx="473.998" cy="-253.209" rx="4.00002" ry="4.00002"/>
</g>
<!-- Visitor&#45;&gt;Visitortenant -->
<g id="edge30" class="edge"><title>Visitor&#45;&gt;Visitortenant</title>
<path fill="none" stroke="#b45439" d="M546.366,-137.062C543.427,-130.632 540.234,-123.647 537.243,-117.106"/>
<ellipse fill="none" stroke="#b45439" cx="548.063" cy="-140.773" rx="4.00002" ry="4.00002"/>
<polygon fill="#b45439" stroke="#b45439" points="537.218,-117.051 537.153,-106.085 535.14,-112.504 533.061,-107.956 533.061,-107.956 533.061,-107.956 535.14,-112.504 528.968,-109.827 537.218,-117.051 537.218,-117.051"/>
</g>
<!-- Room&#45;&gt;Furnitureinroom -->
<g id="edge31" class="edge"><title>Room&#45;&gt;Furnitureinroom</title>
<path fill="none" stroke="#3ea480" d="M240.574,-139.143C234.244,-131.757 227.131,-123.459 220.617,-115.859"/>
<ellipse fill="none" stroke="#3ea480" cx="243.39" cy="-142.428" rx="4.00002" ry="4.00002"/>
<polygon fill="#3ea480" stroke="#3ea480" points="220.356,-115.554 217.265,-105.033 217.102,-111.758 213.848,-107.962 213.848,-107.962 213.848,-107.962 217.102,-111.758 210.431,-110.89 220.356,-115.554 220.356,-115.554"/>
</g>
<!-- Room&#45;&gt;Historymove -->
<g id="edge32" class="edge"><title>Room&#45;&gt;Historymove</title>
<path fill="none" stroke="#586cdd" d="M283.13,-141.383C293.648,-132.721 306.071,-122.49 316.966,-113.518"/>
<ellipse fill="none" stroke="#586cdd" cx="280.009" cy="-143.953" rx="4.00002" ry="4.00002"/>
<polygon fill="#586cdd" stroke="#586cdd" points="317.222,-113.307 327.802,-110.423 321.082,-110.128 324.942,-106.95 324.942,-106.95 324.942,-106.95 321.082,-110.128 322.081,-103.476 317.222,-113.307 317.222,-113.307"/>
</g>
<!-- Historymove&#45;&gt;Request -->
<g id="edge33" class="edge"><title>Historymove&#45;&gt;Request</title>
<path fill="none" stroke="#003d03" d="M302.044,-72.4718C272.152,-60.7819 232.406,-45.2388 203.473,-33.9245"/>
<ellipse fill="none" stroke="#003d03" cx="306.071" cy="-74.0465" rx="4.00001" ry="4.00001"/>
<polygon fill="#003d03" stroke="#003d03" points="203.419,-33.9034 195.745,-26.0703 198.763,-32.0823 194.106,-30.2613 194.106,-30.2613 194.106,-30.2613 198.763,-32.0823 192.467,-34.4522 203.419,-33.9034 203.419,-33.9034"/>
</g>
</g>
</svg>
