<?xml version="1.0" encoding="UTF-8" standalone="no"?>
<!DOCTYPE svg PUBLIC "-//W3C//DTD SVG 1.1//EN"
 "http://www.w3.org/Graphics/SVG/1.1/DTD/svg11.dtd">
<!-- Generated by graphviz version 2.38.0 (20140413.2041)
 -->
<!-- Title: models_diagram Pages: 1 -->
<svg width="795pt" height="518pt"
 viewBox="0.00 0.00 794.55 518.00" xmlns="http://www.w3.org/2000/svg" xmlns:xlink="http://www.w3.org/1999/xlink">
<g id="graph0" class="graph" transform="scale(1 1) rotate(0) translate(4 514)">
<title>models_diagram</title>
<polygon fill="none" stroke="none" points="-4,4 -4,-514 790.546,-514 790.546,4 -4,4"/>
<!-- _diagram_info -->
<g id="node1" class="node"><title>_diagram_info</title>
<text text-anchor="start" x="8" y="-495.6" font-family="Times,serif" font-size="13.00">Models diagram</text>
<text text-anchor="start" x="8" y="-481.6" font-family="Times,serif" font-size="13.00">Date: May 27 2016 &#45; 19:50</text>
<text text-anchor="start" x="8" y="-467.6" font-family="Times,serif" font-size="13.00">Migration version: 20160526120246</text>
<text text-anchor="start" x="8" y="-453.6" font-family="Times,serif" font-size="13.00">Generated by RailRoady 1.4.2</text>
<text text-anchor="start" x="8" y="-439.6" font-family="Times,serif" font-size="13.00">http://railroady.prestonlee.com</text>
</g>
<!-- Student -->
<g id="node2" class="node"><title>Student</title>
<ellipse fill="none" stroke="black" cx="299" cy="-378" rx="37.8943" ry="18"/>
<text text-anchor="middle" x="299" y="-374.3" font-family="Times,serif" font-size="14.00">Student</text>
</g>
<!-- Tenant -->
<g id="node12" class="node"><title>Tenant</title>
<ellipse fill="none" stroke="black" cx="301" cy="-234" rx="35.194" ry="18"/>
<text text-anchor="middle" x="301" y="-230.3" font-family="Times,serif" font-size="14.00">Tenant</text>
</g>
<!-- Student&#45;&gt;Tenant -->
<g id="edge1" class="edge"><title>Student&#45;&gt;Tenant</title>
<path fill="none" stroke="#20f300" d="M299.358,-351.558C299.722,-325.771 300.28,-286.104 300.643,-260.35"/>
<ellipse fill="none" stroke="#20f300" cx="299.298" cy="-355.872" rx="4" ry="4"/>
<ellipse fill="#20f300" stroke="#20f300" cx="300.702" cy="-256.189" rx="4" ry="4"/>
</g>
<!-- Relative -->
<g id="node15" class="node"><title>Relative</title>
<ellipse fill="none" stroke="black" cx="233" cy="-306" rx="40.0939" ry="18"/>
<text text-anchor="middle" x="233" y="-302.3" font-family="Times,serif" font-size="14.00">Relative</text>
</g>
<!-- Student&#45;&gt;Relative -->
<g id="edge2" class="edge"><title>Student&#45;&gt;Relative</title>
<path fill="none" stroke="#6c9016" d="M278.44,-355.194C271.029,-347.334 262.638,-338.434 255.101,-330.441"/>
<ellipse fill="none" stroke="#6c9016" cx="281.28" cy="-358.206" rx="4.00002" ry="4.00002"/>
<polygon fill="#6c9016" stroke="#6c9016" points="254.777,-330.097 251.191,-319.734 251.347,-326.459 247.917,-322.821 247.917,-322.821 247.917,-322.821 251.347,-326.459 244.643,-325.908 254.777,-330.097 254.777,-330.097"/>
</g>
<!-- Furniture -->
<g id="node3" class="node"><title>Furniture</title>
<ellipse fill="none" stroke="black" cx="743" cy="-234" rx="43.5923" ry="18"/>
<text text-anchor="middle" x="743" y="-230.3" font-family="Times,serif" font-size="14.00">Furniture</text>
</g>
<!-- Room -->
<g id="node18" class="node"><title>Room</title>
<ellipse fill="none" stroke="black" cx="671" cy="-162" rx="32.4942" ry="18"/>
<text text-anchor="middle" x="671" y="-158.3" font-family="Times,serif" font-size="14.00">Room</text>
</g>
<!-- Furniture&#45;&gt;Room -->
<g id="edge4" class="edge"><title>Furniture&#45;&gt;Room</title>
<path fill="none" stroke="#948fbc" d="M719.247,-209.906C711.247,-202.129 702.332,-193.462 694.363,-185.714"/>
<polygon fill="#948fbc" stroke="#948fbc" points="719.492,-210.145 723.525,-220.342 723.077,-213.631 726.662,-217.116 726.662,-217.116 726.662,-217.116 723.077,-213.631 729.799,-213.889 719.492,-210.145 719.492,-210.145"/>
<polygon fill="#948fbc" stroke="#948fbc" points="693.948,-185.311 689.915,-175.114 690.363,-181.826 686.778,-178.34 686.778,-178.34 686.778,-178.34 690.363,-181.826 683.642,-181.567 693.948,-185.311 693.948,-185.311"/>
</g>
<!-- Furnitureinroom -->
<g id="node19" class="node"><title>Furnitureinroom</title>
<ellipse fill="none" stroke="black" cx="712" cy="-90" rx="69.5877" ry="18"/>
<text text-anchor="middle" x="712" y="-86.3" font-family="Times,serif" font-size="14.00">Furnitureinroom</text>
</g>
<!-- Furniture&#45;&gt;Furnitureinroom -->
<g id="edge3" class="edge"><title>Furniture&#45;&gt;Furnitureinroom</title>
<path fill="none" stroke="#4ccca3" d="M737.527,-207.929C732.024,-182.725 723.569,-143.994 717.915,-118.095"/>
<ellipse fill="none" stroke="#4ccca3" cx="738.407" cy="-211.964" rx="4.00001" ry="4.00001"/>
<polygon fill="#4ccca3" stroke="#4ccca3" points="717.886,-117.959 720.149,-107.229 716.819,-113.074 715.753,-108.189 715.753,-108.189 715.753,-108.189 716.819,-113.074 711.356,-109.149 717.886,-117.959 717.886,-117.959"/>
</g>
<!-- Linen -->
<g id="node4" class="node"><title>Linen</title>
<ellipse fill="none" stroke="black" cx="398" cy="-306" rx="31.3957" ry="18"/>
<text text-anchor="middle" x="398" y="-302.3" font-family="Times,serif" font-size="14.00">Linen</text>
</g>
<!-- Linenattenant -->
<g id="node8" class="node"><title>Linenattenant</title>
<ellipse fill="none" stroke="black" cx="304" cy="-162" rx="59.2899" ry="18"/>
<text text-anchor="middle" x="304" y="-158.3" font-family="Times,serif" font-size="14.00">Linenattenant</text>
</g>
<!-- Linen&#45;&gt;Linenattenant -->
<g id="edge5" class="edge"><title>Linen&#45;&gt;Linenattenant</title>
<path fill="none" stroke="#dddcf0" d="M384.892,-281.234C374.6,-263.023 359.612,-237.462 345,-216 338.55,-206.527 330.993,-196.496 324.135,-187.739"/>
<ellipse fill="none" stroke="#dddcf0" cx="387.043" cy="-285.067" rx="4.00002" ry="4.00002"/>
<polygon fill="#dddcf0" stroke="#dddcf0" points="324.048,-187.629 321.36,-176.998 320.941,-183.712 317.834,-179.794 317.834,-179.794 317.834,-179.794 320.941,-183.712 314.308,-182.59 324.048,-187.629 324.048,-187.629"/>
</g>
<!-- Linen&#45;&gt;Tenant -->
<g id="edge6" class="edge"><title>Linen&#45;&gt;Tenant</title>
<path fill="none" stroke="#ec49d4" d="M370.886,-285.433C357.792,-275.984 342.098,-264.658 328.902,-255.136"/>
<polygon fill="#ec49d4" stroke="#ec49d4" points="371.188,-285.651 376.664,-295.152 375.243,-288.577 379.297,-291.503 379.297,-291.503 379.297,-291.503 375.243,-288.577 381.931,-287.854 371.188,-285.651 371.188,-285.651"/>
<polygon fill="#ec49d4" stroke="#ec49d4" points="328.753,-255.028 323.277,-245.527 324.699,-252.102 320.644,-249.176 320.644,-249.176 320.644,-249.176 324.699,-252.102 318.011,-252.825 328.753,-255.028 328.753,-255.028"/>
</g>
<!-- Request -->
<g id="node5" class="node"><title>Request</title>
<ellipse fill="none" stroke="black" cx="505" cy="-18" rx="38.9931" ry="18"/>
<text text-anchor="middle" x="505" y="-14.3" font-family="Times,serif" font-size="14.00">Request</text>
</g>
<!-- Person -->
<g id="node6" class="node"><title>Person</title>
<ellipse fill="none" stroke="black" cx="266" cy="-471" rx="34.394" ry="18"/>
<text text-anchor="middle" x="266" y="-467.3" font-family="Times,serif" font-size="14.00">Person</text>
</g>
<!-- Person&#45;&gt;Student -->
<g id="edge7" class="edge"><title>Person&#45;&gt;Student</title>
<path fill="none" stroke="#90ac4c" d="M275.008,-445.159C279.69,-432.249 285.393,-416.522 290.064,-403.641"/>
<ellipse fill="none" stroke="#90ac4c" cx="273.571" cy="-449.123" rx="4.00001" ry="4.00001"/>
<ellipse fill="#90ac4c" stroke="#90ac4c" cx="291.457" cy="-399.8" rx="4.00001" ry="4.00001"/>
</g>
<!-- Guest -->
<g id="node11" class="node"><title>Guest</title>
<ellipse fill="none" stroke="black" cx="174" cy="-378" rx="31.3957" ry="18"/>
<text text-anchor="middle" x="174" y="-374.3" font-family="Times,serif" font-size="14.00">Guest</text>
</g>
<!-- Person&#45;&gt;Guest -->
<g id="edge10" class="edge"><title>Person&#45;&gt;Guest</title>
<path fill="none" stroke="#c13ed9" d="M244.437,-448.671C229.551,-433.947 209.855,-414.465 195.076,-399.847"/>
<ellipse fill="none" stroke="#c13ed9" cx="247.55" cy="-451.75" rx="4.00002" ry="4.00002"/>
<ellipse fill="#c13ed9" stroke="#c13ed9" cx="191.915" cy="-396.72" rx="4.00002" ry="4.00002"/>
</g>
<!-- Workman -->
<g id="node13" class="node"><title>Workman</title>
<ellipse fill="none" stroke="black" cx="401" cy="-378" rx="46.5926" ry="18"/>
<text text-anchor="middle" x="401" y="-374.3" font-family="Times,serif" font-size="14.00">Workman</text>
</g>
<!-- Person&#45;&gt;Workman -->
<g id="edge8" class="edge"><title>Person&#45;&gt;Workman</title>
<path fill="none" stroke="#58acd2" d="M292.98,-451.813C315.917,-436.352 348.764,-414.211 372.205,-398.41"/>
<ellipse fill="none" stroke="#58acd2" cx="289.528" cy="-454.141" rx="4.00002" ry="4.00002"/>
<ellipse fill="#58acd2" stroke="#58acd2" cx="375.536" cy="-396.165" rx="4.00002" ry="4.00002"/>
</g>
<!-- Employee -->
<g id="node14" class="node"><title>Employee</title>
<ellipse fill="none" stroke="black" cx="494" cy="-306" rx="46.5926" ry="18"/>
<text text-anchor="middle" x="494" y="-302.3" font-family="Times,serif" font-size="14.00">Employee</text>
</g>
<!-- Person&#45;&gt;Employee -->
<g id="edge12" class="edge"><title>Person&#45;&gt;Employee</title>
<path fill="none" stroke="#753a58" d="M306.886,-463.826C349.43,-455.414 415.517,-436.484 457,-396 474.709,-378.717 484.305,-351.705 489.252,-331.97"/>
<ellipse fill="none" stroke="#753a58" cx="302.897" cy="-464.58" rx="4.00001" ry="4.00001"/>
<ellipse fill="#753a58" stroke="#753a58" cx="490.194" cy="-327.904" rx="4.00001" ry="4.00001"/>
</g>
<!-- Person&#45;&gt;Relative -->
<g id="edge9" class="edge"><title>Person&#45;&gt;Relative</title>
<path fill="none" stroke="#11b4ca" d="M260.928,-444.945C254.75,-414.434 244.374,-363.179 238.158,-332.477"/>
<ellipse fill="none" stroke="#11b4ca" cx="261.737" cy="-448.944" rx="4.00001" ry="4.00001"/>
<ellipse fill="#11b4ca" stroke="#11b4ca" cx="237.316" cy="-328.317" rx="4.00001" ry="4.00001"/>
</g>
<!-- Visitor -->
<g id="node16" class="node"><title>Visitor</title>
<ellipse fill="none" stroke="black" cx="116" cy="-162" rx="35.194" ry="18"/>
<text text-anchor="middle" x="116" y="-158.3" font-family="Times,serif" font-size="14.00">Visitor</text>
</g>
<!-- Person&#45;&gt;Visitor -->
<g id="edge11" class="edge"><title>Person&#45;&gt;Visitor</title>
<path fill="none" stroke="#cb183b" d="M244.825,-448.738C238.203,-442.815 230.625,-436.718 223,-432 186.715,-409.55 159.199,-430.433 134,-396 88.0975,-333.276 100.816,-233.946 110.125,-187.924"/>
<ellipse fill="none" stroke="#cb183b" cx="248.161" cy="-451.828" rx="4.00002" ry="4.00002"/>
<ellipse fill="#cb183b" stroke="#cb183b" cx="110.98" cy="-183.885" rx="4.00001" ry="4.00001"/>
</g>
<!-- User -->
<g id="node7" class="node"><title>User</title>
<ellipse fill="none" stroke="black" cx="408" cy="-162" rx="27.0966" ry="18"/>
<text text-anchor="middle" x="408" y="-158.3" font-family="Times,serif" font-size="14.00">User</text>
</g>
<!-- Visitortenant -->
<g id="node9" class="node"><title>Visitortenant</title>
<ellipse fill="none" stroke="black" cx="147" cy="-90" rx="56.59" ry="18"/>
<text text-anchor="middle" x="147" y="-86.3" font-family="Times,serif" font-size="14.00">Visitortenant</text>
</g>
<!-- Building -->
<g id="node10" class="node"><title>Building</title>
<ellipse fill="none" stroke="black" cx="569" cy="-378" rx="41.6928" ry="18"/>
<text text-anchor="middle" x="569" y="-374.3" font-family="Times,serif" font-size="14.00">Building</text>
</g>
<!-- Building&#45;&gt;Furniture -->
<g id="edge17" class="edge"><title>Building&#45;&gt;Furniture</title>
<path fill="none" stroke="#a4baf0" d="M610.381,-364.556C634.104,-355.934 663.369,-342.627 685,-324 705.205,-306.601 721.087,-280.469 731.085,-261.017"/>
<ellipse fill="none" stroke="#a4baf0" cx="606.341" cy="-365.976" rx="4.00001" ry="4.00001"/>
<polygon fill="#a4baf0" stroke="#a4baf0" points="731.208,-260.768 739.674,-253.798 733.424,-256.286 735.64,-251.804 735.64,-251.804 735.64,-251.804 733.424,-256.286 731.607,-249.809 731.208,-260.768 731.208,-260.768"/>
</g>
<!-- Building&#45;&gt;Linen -->
<g id="edge16" class="edge"><title>Building&#45;&gt;Linen</title>
<path fill="none" stroke="#6cca7f" d="M532.063,-362.255C505.78,-351.715 469.661,-337.131 438,-324 435.961,-323.154 433.866,-322.28 431.754,-321.395"/>
<ellipse fill="none" stroke="#6cca7f" cx="535.831" cy="-363.765" rx="4.00001" ry="4.00001"/>
<polygon fill="#6cca7f" stroke="#6cca7f" points="431.724,-321.382 424.259,-313.35 427.117,-319.439 422.51,-317.497 422.51,-317.497 422.51,-317.497 427.117,-319.439 420.762,-321.643 431.724,-321.382 431.724,-321.382"/>
</g>
<!-- Building&#45;&gt;Employee -->
<g id="edge15" class="edge"><title>Building&#45;&gt;Employee</title>
<path fill="none" stroke="#62931d" d="M544.739,-354.357C536.342,-346.519 526.928,-337.733 518.511,-329.877"/>
<polygon fill="#62931d" stroke="#62931d" points="545.044,-354.642 549.285,-364.754 548.7,-358.053 552.355,-361.465 552.355,-361.465 552.355,-361.465 548.7,-358.053 555.426,-358.175 545.044,-354.642 545.044,-354.642"/>
<polygon fill="#62931d" stroke="#62931d" points="518.429,-329.8 514.189,-319.687 514.774,-326.389 511.118,-322.977 511.118,-322.977 511.118,-322.977 514.774,-326.389 508.048,-326.267 518.429,-329.8 518.429,-329.8"/>
</g>
<!-- Buildingemployee -->
<g id="node17" class="node"><title>Buildingemployee</title>
<ellipse fill="none" stroke="black" cx="567" cy="-234" rx="76.0865" ry="18"/>
<text text-anchor="middle" x="567" y="-230.3" font-family="Times,serif" font-size="14.00">Buildingemployee</text>
</g>
<!-- Building&#45;&gt;Buildingemployee -->
<g id="edge14" class="edge"><title>Building&#45;&gt;Buildingemployee</title>
<path fill="none" stroke="#815586" d="M568.642,-351.558C568.288,-326.444 567.749,-288.164 567.386,-262.393"/>
<ellipse fill="none" stroke="#815586" cx="568.702" cy="-355.872" rx="4" ry="4"/>
<polygon fill="#815586" stroke="#815586" points="567.383,-262.188 571.742,-252.126 567.313,-257.189 567.242,-252.189 567.242,-252.189 567.242,-252.189 567.313,-257.189 562.743,-252.253 567.383,-262.188 567.383,-262.188"/>
</g>
<!-- Building&#45;&gt;Room -->
<g id="edge13" class="edge"><title>Building&#45;&gt;Room</title>
<path fill="none" stroke="#a673e1" d="M587.809,-354.457C606.819,-330.519 635.656,-290.848 652,-252 660.31,-232.249 665.147,-208.447 667.86,-190.429"/>
<ellipse fill="none" stroke="#a673e1" cx="585.232" cy="-357.66" rx="4.00002" ry="4.00002"/>
<polygon fill="#a673e1" stroke="#a673e1" points="667.889,-190.211 673.711,-180.918 668.571,-185.258 669.253,-180.305 669.253,-180.305 669.253,-180.305 668.571,-185.258 664.795,-179.691 667.889,-190.211 667.889,-190.211"/>
</g>
<!-- Guest&#45;&gt;Tenant -->
<g id="edge18" class="edge"><title>Guest&#45;&gt;Tenant</title>
<path fill="none" stroke="#79f712" d="M170.544,-351.786C169.285,-332.536 170.698,-306.294 184,-288 202.005,-263.237 234.35,-249.791 260.475,-242.646"/>
<ellipse fill="none" stroke="#79f712" cx="170.899" cy="-355.839" rx="4" ry="4"/>
<ellipse fill="#79f712" stroke="#79f712" cx="264.486" cy="-241.618" rx="4.00001" ry="4.00001"/>
</g>
<!-- Guest&#45;&gt;Relative -->
<g id="edge19" class="edge"><title>Guest&#45;&gt;Relative</title>
<path fill="none" stroke="#ced995" d="M192.335,-355.247C198.862,-347.503 206.245,-338.743 212.911,-330.834"/>
<ellipse fill="none" stroke="#ced995" cx="189.672" cy="-358.406" rx="4.00002" ry="4.00002"/>
<polygon fill="#ced995" stroke="#ced995" points="213.089,-330.623 222.974,-325.877 216.311,-326.8 219.534,-322.977 219.534,-322.977 219.534,-322.977 216.311,-326.8 216.093,-320.077 213.089,-330.623 213.089,-330.623"/>
</g>
<!-- Tenant&#45;&gt;User -->
<g id="edge20" class="edge"><title>Tenant&#45;&gt;User</title>
<path fill="none" stroke="#55cb51" d="M328.623,-214.929C345.16,-204.11 366.042,-190.449 382.237,-179.855"/>
<ellipse fill="none" stroke="#55cb51" cx="325.232" cy="-217.147" rx="4.00002" ry="4.00002"/>
<ellipse fill="#55cb51" stroke="#55cb51" cx="385.968" cy="-177.414" rx="4.00002" ry="4.00002"/>
</g>
<!-- Tenant&#45;&gt;Linenattenant -->
<g id="edge23" class="edge"><title>Tenant&#45;&gt;Linenattenant</title>
<path fill="none" stroke="#2b726e" d="M302.087,-207.64C302.326,-202.063 302.58,-196.132 302.822,-190.476"/>
<ellipse fill="none" stroke="#2b726e" cx="301.913" cy="-211.7" rx="4" ry="4"/>
<polygon fill="#2b726e" stroke="#2b726e" points="302.839,-190.095 307.763,-180.297 303.053,-185.1 303.267,-180.104 303.267,-180.104 303.267,-180.104 303.053,-185.1 298.771,-179.912 302.839,-190.095 302.839,-190.095"/>
</g>
<!-- Tenant&#45;&gt;Visitortenant -->
<g id="edge21" class="edge"><title>Tenant&#45;&gt;Visitortenant</title>
<path fill="none" stroke="#3c92aa" d="M265.824,-219.312C245.794,-210.29 221.155,-196.997 203,-180 183.847,-162.069 168.55,-136.22 158.815,-116.996"/>
<ellipse fill="none" stroke="#3c92aa" cx="269.587" cy="-220.957" rx="4.00002" ry="4.00002"/>
<polygon fill="#3c92aa" stroke="#3c92aa" points="158.756,-116.874 158.409,-105.914 156.561,-112.382 154.366,-107.889 154.366,-107.889 154.366,-107.889 156.561,-112.382 150.322,-109.865 158.756,-116.874 158.756,-116.874"/>
</g>
<!-- Tenant&#45;&gt;Visitor -->
<g id="edge22" class="edge"><title>Tenant&#45;&gt;Visitor</title>
<path fill="none" stroke="#9da515" d="M264.156,-219.059C231.888,-206.85 185.236,-189.197 152.94,-176.977"/>
<polygon fill="#9da515" stroke="#9da515" points="264.35,-219.132 272.11,-226.88 269.026,-220.902 273.703,-222.671 273.703,-222.671 273.703,-222.671 269.026,-220.902 275.295,-218.462 264.35,-219.132 264.35,-219.132"/>
<polygon fill="#9da515" stroke="#9da515" points="152.762,-176.91 145.002,-169.162 148.086,-175.141 143.409,-173.371 143.409,-173.371 143.409,-173.371 148.086,-175.141 141.817,-177.58 152.762,-176.91 152.762,-176.91"/>
</g>
<!-- Tenant&#45;&gt;Room -->
<g id="edge25" class="edge"><title>Tenant&#45;&gt;Room</title>
<path fill="none" stroke="#7e9ab6" d="M343.632,-224.934C415.568,-211.325 560.083,-183.984 630.532,-170.656"/>
<polygon fill="#7e9ab6" stroke="#7e9ab6" points="343.336,-224.99 332.674,-222.428 338.424,-225.92 333.511,-226.849 333.511,-226.849 333.511,-226.849 338.424,-225.92 334.347,-231.271 343.336,-224.99 343.336,-224.99"/>
<polygon fill="#7e9ab6" stroke="#7e9ab6" points="630.951,-170.577 641.613,-173.14 635.864,-169.647 640.777,-168.718 640.777,-168.718 640.777,-168.718 635.864,-169.647 639.94,-164.296 630.951,-170.577 630.951,-170.577"/>
</g>
<!-- Historymove -->
<g id="node20" class="node"><title>Historymove</title>
<ellipse fill="none" stroke="black" cx="548" cy="-90" rx="57.3905" ry="18"/>
<text text-anchor="middle" x="548" y="-86.3" font-family="Times,serif" font-size="14.00">Historymove</text>
</g>
<!-- Tenant&#45;&gt;Historymove -->
<g id="edge24" class="edge"><title>Tenant&#45;&gt;Historymove</title>
<path fill="none" stroke="#8d07ac" d="M270.38,-216.43C257.226,-207.53 243.234,-195.232 236,-180 229.136,-165.547 225.677,-156.224 236,-144 266.711,-107.632 398.783,-96.2147 480.935,-92.6335"/>
<ellipse fill="none" stroke="#8d07ac" cx="273.777" cy="-218.611" rx="4.00002" ry="4.00002"/>
<polygon fill="#8d07ac" stroke="#8d07ac" points="480.951,-92.6329 491.126,-96.7213 485.947,-92.4289 490.942,-92.225 490.942,-92.225 490.942,-92.225 485.947,-92.4289 490.759,-87.7287 480.951,-92.6329 480.951,-92.6329"/>
</g>
<!-- Workman&#45;&gt;Tenant -->
<g id="edge26" class="edge"><title>Workman&#45;&gt;Tenant</title>
<path fill="none" stroke="#66bc93" d="M381.634,-354.278C374.027,-345.062 365.37,-334.202 358,-324 342.487,-302.526 326.342,-276.967 315.213,-258.759"/>
<ellipse fill="none" stroke="#66bc93" cx="384.394" cy="-357.592" rx="4.00002" ry="4.00002"/>
<ellipse fill="#66bc93" stroke="#66bc93" cx="312.843" cy="-254.858" rx="4.00002" ry="4.00002"/>
</g>
<!-- Workman&#45;&gt;Relative -->
<g id="edge27" class="edge"><title>Workman&#45;&gt;Relative</title>
<path fill="none" stroke="#91797b" d="M362.618,-361.008C335.042,-349.517 298.05,-334.104 270.643,-322.685"/>
<ellipse fill="none" stroke="#91797b" cx="366.494" cy="-362.622" rx="4.00002" ry="4.00002"/>
<polygon fill="#91797b" stroke="#91797b" points="270.611,-322.671 263.111,-314.671 265.996,-320.748 261.38,-318.825 261.38,-318.825 261.38,-318.825 265.996,-320.748 259.649,-322.979 270.611,-322.671 270.611,-322.671"/>
</g>
<!-- Employee&#45;&gt;Request -->
<g id="edge29" class="edge"><title>Employee&#45;&gt;Request</title>
<path fill="none" stroke="#29a2dc" d="M487.136,-279.992C485.048,-271.213 483.033,-261.237 482,-252 473.112,-172.495 465.737,-150.329 482,-72 483.905,-62.8235 487.484,-53.2851 491.26,-44.8715"/>
<ellipse fill="none" stroke="#29a2dc" cx="488.161" cy="-284.098" rx="4.00001" ry="4.00001"/>
<polygon fill="#29a2dc" stroke="#29a2dc" points="491.38,-44.6211 499.755,-37.5426 493.538,-40.1107 495.696,-35.6004 495.696,-35.6004 495.696,-35.6004 493.538,-40.1107 491.637,-33.6582 491.38,-44.6211 491.38,-44.6211"/>
</g>
<!-- Employee&#45;&gt;User -->
<g id="edge28" class="edge"><title>Employee&#45;&gt;User</title>
<path fill="none" stroke="#6ae5ca" d="M472.758,-282.749C464.716,-273.65 455.857,-262.749 449,-252 435.909,-231.478 424.643,-206.093 417.252,-187.692"/>
<ellipse fill="none" stroke="#6ae5ca" cx="475.481" cy="-285.766" rx="4.00002" ry="4.00002"/>
<ellipse fill="#6ae5ca" stroke="#6ae5ca" cx="415.601" cy="-183.494" rx="4.00001" ry="4.00001"/>
</g>
<!-- Employee&#45;&gt;Buildingemployee -->
<g id="edge30" class="edge"><title>Employee&#45;&gt;Buildingemployee</title>
<path fill="none" stroke="#dab1fe" d="M516.605,-283.324C524.783,-275.482 534.056,-266.59 542.398,-258.591"/>
<ellipse fill="none" stroke="#dab1fe" cx="513.452" cy="-286.347" rx="4.00002" ry="4.00002"/>
<polygon fill="#dab1fe" stroke="#dab1fe" points="542.521,-258.473 552.854,-254.8 546.13,-255.012 549.739,-251.552 549.739,-251.552 549.739,-251.552 546.13,-255.012 546.624,-248.304 542.521,-258.473 542.521,-258.473"/>
</g>
<!-- Relative&#45;&gt;Tenant -->
<g id="edge31" class="edge"><title>Relative&#45;&gt;Tenant</title>
<path fill="none" stroke="#8393ef" d="M254.267,-283.107C262.502,-274.63 271.902,-264.954 280.101,-256.514"/>
<ellipse fill="none" stroke="#8393ef" cx="251.217" cy="-286.247" rx="4.00002" ry="4.00002"/>
<ellipse fill="#8393ef" stroke="#8393ef" cx="283.311" cy="-253.209" rx="4.00002" ry="4.00002"/>
</g>
<!-- Visitor&#45;&gt;Visitortenant -->
<g id="edge32" class="edge"><title>Visitor&#45;&gt;Visitortenant</title>
<path fill="none" stroke="#07bfe2" d="M126.829,-136.548C129.539,-130.428 132.459,-123.835 135.213,-117.616"/>
<ellipse fill="none" stroke="#07bfe2" cx="125.124" cy="-140.398" rx="4.00002" ry="4.00002"/>
<polygon fill="#07bfe2" stroke="#07bfe2" points="135.3,-117.419 143.464,-110.097 137.325,-112.847 139.35,-108.275 139.35,-108.275 139.35,-108.275 137.325,-112.847 135.235,-106.453 135.3,-117.419 135.3,-117.419"/>
</g>
<!-- Room&#45;&gt;Furnitureinroom -->
<g id="edge33" class="edge"><title>Room&#45;&gt;Furnitureinroom</title>
<path fill="none" stroke="#0a41d0" d="M684.651,-137.694C688.542,-131.05 692.805,-123.772 696.784,-116.979"/>
<ellipse fill="none" stroke="#0a41d0" cx="682.531" cy="-141.313" rx="4.00002" ry="4.00002"/>
<polygon fill="#0a41d0" stroke="#0a41d0" points="696.916,-116.753 705.853,-110.398 699.443,-112.438 701.97,-108.124 701.97,-108.124 701.97,-108.124 699.443,-112.438 698.087,-105.85 696.916,-116.753 696.916,-116.753"/>
</g>
<!-- Room&#45;&gt;Historymove -->
<g id="edge34" class="edge"><title>Room&#45;&gt;Historymove</title>
<path fill="none" stroke="#a76eb3" d="M641.811,-144.388C624.257,-134.398 601.798,-121.616 583.256,-111.064"/>
<ellipse fill="none" stroke="#a76eb3" cx="645.534" cy="-146.507" rx="4.00002" ry="4.00002"/>
<polygon fill="#a76eb3" stroke="#a76eb3" points="583.198,-111.032 576.733,-102.174 578.853,-108.558 574.507,-106.085 574.507,-106.085 574.507,-106.085 578.853,-108.558 572.281,-109.996 583.198,-111.032 583.198,-111.032"/>
</g>
<!-- Historymove&#45;&gt;Request -->
<g id="edge35" class="edge"><title>Historymove&#45;&gt;Request</title>
<path fill="none" stroke="#91d46d" d="M533.256,-64.9976C529.195,-58.3871 524.776,-51.1939 520.665,-44.502"/>
<ellipse fill="none" stroke="#91d46d" cx="535.497" cy="-68.6466" rx="4.00002" ry="4.00002"/>
<polygon fill="#91d46d" stroke="#91d46d" points="520.547,-44.3098 519.148,-33.4336 517.93,-40.0494 515.313,-35.789 515.313,-35.789 515.313,-35.789 517.93,-40.0494 511.479,-38.1444 520.547,-44.3098 520.547,-44.3098"/>
</g>
</g>
</svg>
